<svg fill="none" height="40" viewBox="0 0 40 40" width="40" xmlns="http://www.w3.org/2000/svg"><circle cx="20" cy="20" fill="#fff" r="20"/><path clip-rule="evenodd" d="m20 40c11.0457 0 20-8.9543 20-20s-8.9543-20-20-20-20 8.9543-20 20 8.9543 20 20 20zm0-1.6c10.162 0 18.4-8.238 18.4-18.4 0-10.16204-8.238-18.4-18.4-18.4-10.16204 0-18.4 8.23796-18.4 18.4 0 10.162 8.23796 18.4 18.4 18.4z" fill="#000" fill-rule="evenodd"/><path d="m36 20c0 8.8366-7.1634 16-16 16s-16-7.1634-16-16 7.1634-16 16-16 16 7.1634 16 16z" fill="#d0e3f5"/><g stroke="#000" stroke-width="1.61956"><path d="m19.5 5.74599 10.7731 14.73381-5.8824 2.8519 4.2199 8.4396"/><path d="m11.0969 16.3305c.3076.6151 1.4763 1.7375 3.6904 1.307 2.2141-.4306 2.4601-2.8446 2.3064-3.9979"/></g></svg>