<svg xmlns="http://www.w3.org/2000/svg" fill="none" viewBox="0 0 100 100" height="100" width="100">
<g clip-path="url(#clip0_3041_566)">
<path fill="#007E40" d="M81.4081 21.7491C76.0113 20.6813 70.7551 19.1333 65.6393 17.1075C60.5236 15.0816 55.6332 12.6085 50.9673 9.69094C50.702 9.51069 50.3869 9.41818 50.0663 9.42641C49.7398 9.43452 49.4207 9.52555 49.1391 9.69094C44.4561 12.6416 39.5436 15.1395 34.3999 17.1835C29.2561 19.2275 23.9697 20.7856 18.5393 21.8555C18.4411 21.8744 18.3449 21.9023 18.2519 21.9389C18.158 21.9765 18.0687 22.0213 17.9831 22.0744C17.8985 22.1276 17.8186 22.1879 17.7444 22.2547C17.6703 22.3223 17.6027 22.3965 17.5423 22.4765C17.4816 22.5565 17.4286 22.6419 17.3839 22.7317C17.3391 22.8213 17.3025 22.9141 17.2745 23.0109C17.2465 23.107 17.2273 23.2053 17.2172 23.3048C17.2068 23.4048 17.2057 23.5048 17.214 23.6048L20.2079 67.0141C20.2451 67.5169 20.2996 68.0183 20.3713 68.5173C20.4433 69.0152 20.5319 69.5112 20.638 70.0037C20.7441 70.4963 20.8671 70.9851 21.0079 71.4693C21.1477 71.9532 21.3044 72.432 21.4777 72.9048C21.6516 73.3779 21.8417 73.8448 22.0476 74.3048C22.2529 74.7653 22.4748 75.2173 22.7121 75.6611C22.9491 76.1056 23.2017 76.5416 23.4695 76.9683C23.7372 77.3955 24.0196 77.8131 24.3164 78.2203C24.6132 78.6272 24.9238 79.024 25.2476 79.4099C25.5718 79.7953 25.9091 80.1695 26.2591 80.5317C26.6094 80.8938 26.9721 81.2437 27.3465 81.5808C27.7213 81.9174 28.1073 82.2412 28.5039 82.5517C28.9017 82.8621 29.3092 83.1579 29.7268 83.4392C30.1444 83.7205 30.5705 83.9883 31.0071 84.2403C31.4434 84.492 31.8881 84.729 32.3404 84.9507C32.7935 85.1715 33.2529 85.3768 33.7207 85.5664L49.2185 91.7675C49.4311 91.8061 49.6425 91.8061 49.8551 91.7675C50.0561 91.8081 50.2633 91.8081 50.4644 91.7675L66.3601 85.4603C66.8267 85.2708 67.2868 85.0655 67.7393 84.8445C68.1923 84.6235 68.6374 84.3865 69.0737 84.1341C69.5092 83.8821 69.9361 83.6155 70.354 83.3341C70.7719 83.0528 71.1791 82.756 71.5759 82.4456C71.9727 82.1352 72.3593 81.8123 72.7343 81.4747C73.1092 81.1371 73.4708 80.7883 73.8207 80.4256C74.1705 80.063 74.5081 79.6891 74.8332 79.3037C75.1572 78.9181 75.4678 78.5213 75.7644 78.1142C76.0612 77.7069 76.3436 77.2901 76.6113 76.8632C76.8786 76.4362 77.1312 76.0003 77.3687 75.556C77.6058 75.1114 77.8274 74.6587 78.0332 74.1987C78.2393 73.7392 78.4289 73.2725 78.602 72.7987C78.7751 72.3248 78.9321 71.8477 79.0729 71.3632C79.2137 70.8787 79.3364 70.3912 79.4428 69.8987C79.5489 69.4061 79.6378 68.91 79.7095 68.4112C79.7815 67.9123 79.8356 67.4112 79.8719 66.9091L82.7604 23.5259C82.7657 23.4248 82.7615 23.3237 82.75 23.2227C82.7377 23.1224 82.7164 23.0234 82.6865 22.9269C82.6566 22.83 82.6182 22.7358 82.5719 22.6456C82.526 22.556 82.4719 22.4707 82.4105 22.3893C82.3491 22.3088 82.2808 22.2339 82.2063 22.1653C82.1324 22.0965 82.0521 22.0352 81.9668 21.9811C81.8815 21.9269 81.7919 21.8789 81.698 21.8405C81.6043 21.8019 81.5074 21.7716 81.4084 21.7499L81.4081 21.7491ZM20.6593 24.8501C25.8561 23.7355 30.9228 22.1939 35.8593 20.2229C40.787 18.2563 45.5397 15.8766 50.0665 13.1093C54.5665 15.8459 59.2623 18.1896 64.1529 20.1416C69.0436 22.0936 74.0633 23.628 79.2092 24.7437L76.2956 66.6957C76.2343 67.5448 76.1132 68.3853 75.9351 69.2165C75.7563 70.0476 75.52 70.8652 75.2279 71.6635C74.9359 72.4614 74.5885 73.2379 74.1884 73.9875C73.7873 74.7376 73.3375 75.4573 72.8364 76.1448C72.3358 76.8314 71.788 77.4824 71.1969 78.0928C70.6052 78.7043 69.974 79.272 69.3031 79.7949C68.6321 80.3179 67.9292 80.7917 67.1916 81.2168C66.4556 81.6414 65.6909 82.0143 64.9031 82.3326L49.7759 88.3742L34.9655 82.4376C34.1782 82.1189 33.4142 81.7455 32.6791 81.32C31.944 80.8945 31.2392 80.4187 30.5697 79.896C29.8999 79.372 29.2697 78.8043 28.678 78.1928C28.0875 77.5823 27.5404 76.9314 27.0404 76.2448C26.5393 75.5573 26.0884 74.8387 25.6884 74.0885C25.2878 73.3393 24.9398 72.5631 24.6468 71.7656C24.354 70.9677 24.1177 70.1531 23.9375 69.3219C23.7572 68.4907 23.6364 67.6499 23.574 66.8021L20.6593 24.8501Z"></path>
<mask height="100" width="82" y="0" x="9" maskUnits="userSpaceOnUse" style="mask-type:luminance" id="mask0_3041_566">
<path fill="white" d="M9.1875 0H90.7875V100H9.1875V0Z"></path>
</mask>
<g mask="url(#mask0_3041_566)">
<path fill="#007E40" d="M89.3301 15.4688C64.0821 11.7845 51.2322 0.574102 51.0999 0.468768C50.7913 0.199703 50.3969 0.0493857 49.9874 0.0447683C49.7486 0.042147 49.5126 0.0964451 49.2989 0.203168C48.9906 0.332235 48.7426 0.535435 48.5573 0.812502C46.4906 2.5093 33.6677 12.2082 10.6178 15.5738C10.5138 15.5904 10.4116 15.6165 10.3125 15.652C10.2125 15.6864 10.1167 15.7312 10.0261 15.7842C9.93541 15.8373 9.84901 15.8989 9.76874 15.9677C9.68919 16.0367 9.61633 16.113 9.55114 16.1957C9.48448 16.2781 9.42714 16.3666 9.37834 16.4602C9.32954 16.5538 9.28874 16.6509 9.25754 16.752C9.22634 16.853 9.20554 16.9562 9.19407 17.0602C9.18261 17.1642 9.17941 17.2706 9.18794 17.376L12.6847 67.5437C12.7341 68.222 12.807 68.8984 12.9034 69.5717C12.9994 70.2448 13.1189 70.9142 13.2618 71.5789C13.4055 72.2445 13.5711 72.904 13.7597 73.557C13.9482 74.2105 14.1598 74.8572 14.3941 75.4957C14.6274 76.1344 14.8826 76.7645 15.1607 77.3853C15.4389 78.0061 15.7367 78.6165 16.0575 79.2165C16.3783 79.8165 16.7181 80.405 17.0794 80.9821C17.4402 81.5584 17.821 82.1219 18.221 82.6717C18.621 83.2218 19.0397 83.757 19.4773 84.2778C19.9149 84.7986 20.3701 85.3029 20.8429 85.7925C21.3157 86.2821 21.8042 86.753 22.3095 87.2082C22.8152 87.6628 23.3363 88.0998 23.8719 88.5186C24.4078 88.9375 24.9582 89.3374 25.5221 89.7176C26.0855 90.0978 26.6615 90.4581 27.2501 90.7989C27.8388 91.139 28.4392 91.4587 29.0501 91.7573C29.6615 92.0562 30.2823 92.3322 30.9125 92.5885L49.4573 99.9552C49.6698 99.9938 49.8813 99.9938 50.0938 99.9552C50.4227 99.9643 50.7464 99.8719 51.021 99.6906H51.1805L69.1429 92.5082C69.7735 92.2537 70.395 91.9772 71.0063 91.6792C71.6178 91.3813 72.2189 91.0626 72.8085 90.7218C73.3976 90.3821 73.9747 90.0218 74.5386 89.6416C75.1029 89.2615 75.6539 88.8619 76.1906 88.4437C76.7268 88.0252 77.2483 87.5881 77.7541 87.1333C78.2605 86.6788 78.7508 86.2066 79.2239 85.7176C79.6967 85.229 80.1519 84.7237 80.5906 84.2029C81.0293 83.6821 81.4479 83.1477 81.849 82.5976C82.25 82.0476 82.6315 81.4837 82.9927 80.9069C83.3544 80.3307 83.6959 79.7422 84.0167 79.1424C84.3375 78.5413 84.6365 77.9309 84.9146 77.3101C85.1927 76.689 85.4491 76.0584 85.6834 75.4194C85.9177 74.7805 86.1297 74.1336 86.3189 73.48C86.5074 72.8269 86.6741 72.1674 86.8167 71.5018C86.9594 70.8362 87.0802 70.1664 87.1773 69.4936C87.2741 68.82 87.347 68.1432 87.3959 67.4645L90.7615 17.2706C90.7687 17.1645 90.7669 17.0592 90.7554 16.9549C90.7439 16.8506 90.7221 16.7466 90.6909 16.6456C90.6597 16.5445 90.6199 16.4477 90.5711 16.3538C90.5218 16.2606 90.4639 16.172 90.3983 16.0893C90.3327 16.0069 90.2597 15.9309 90.1797 15.8613C90.1001 15.7925 90.0143 15.7312 89.9234 15.6781C89.8317 15.625 89.7359 15.5813 89.637 15.5458C89.5381 15.5104 89.4349 15.4845 89.3309 15.4688H89.3301ZM67.7906 89.3552L49.8551 96.5365L32.1573 89.4605C31.5999 89.2344 31.0511 88.9896 30.5103 88.725C29.9695 88.4605 29.4394 88.1781 28.9186 87.877C28.3978 87.576 27.8874 87.2562 27.3895 86.9197C26.8907 86.5832 26.4039 86.2292 25.9301 85.8584C25.4562 85.4885 24.9957 85.1021 24.5477 84.6989C24.0997 84.2957 23.6685 83.8792 23.2498 83.4458C22.8319 83.0136 22.4293 82.5668 22.0426 82.1064C21.6552 81.646 21.2842 81.1721 20.9301 80.6856C20.5763 80.1993 20.2393 79.7011 19.9197 79.1917C19.5999 78.6813 19.2978 78.1616 19.0143 77.6304C18.731 77.0999 18.4662 76.5596 18.2205 76.0106C17.9746 75.4616 17.7477 74.9045 17.5402 74.3386C17.3327 73.7728 17.1463 73.2021 16.9789 72.625C16.8114 72.048 16.6642 71.4637 16.5373 70.8752C16.4103 70.2866 16.3039 69.6949 16.2175 69.0992C16.1311 68.5034 16.0666 67.9064 16.0229 67.3053L12.6583 18.5957C34.1178 15.1498 46.4906 6.6437 50.0407 3.86023C53.7501 6.80184 66.0959 15.177 87.2909 18.5957L83.9263 67.2258C83.8816 67.8252 83.816 68.4228 83.7295 69.0176C83.6431 69.6133 83.5357 70.204 83.4087 70.7914C83.2816 71.3791 83.1339 71.9621 82.9661 72.5394C82.7975 73.1165 82.6096 73.6876 82.4026 74.252C82.1954 74.816 81.9685 75.3726 81.7223 75.9208C81.4763 76.4694 81.2113 77.0093 80.9277 77.5394C80.6445 78.0696 80.3423 78.5896 80.0223 79.0978C79.7023 79.6061 79.3661 80.105 79.0119 80.5906C78.6581 81.0764 78.2874 81.5496 77.9005 82.0093C77.5135 82.4695 77.1104 82.916 76.6922 83.348C76.2746 83.7802 75.8423 84.197 75.3954 84.5989C74.9486 85.0011 74.4879 85.3874 74.0141 85.7573C73.5403 86.1272 73.0539 86.4806 72.5557 86.8168C72.0577 87.1533 71.548 87.4723 71.0277 87.773C70.5075 88.0738 69.9769 88.3563 69.437 88.62C68.8975 88.8845 68.3485 89.1293 67.7911 89.3554L67.7906 89.3552Z"></path>
</g>
<path fill="#007E40" d="M33.429 58.9574H41.377V66.9083L41.4031 67.3896L41.4751 67.8667L41.5938 68.3344L41.7562 68.7886L41.9615 69.2251L42.2095 69.6387C42.298 69.7731 42.3938 69.9022 42.4948 70.0272L42.8167 70.3867L43.1719 70.7128L43.5572 71.0024L43.9687 71.2544L44.4031 71.4648C44.5509 71.5281 44.7018 71.5841 44.8551 71.6326C45.0081 71.6813 45.1635 71.7224 45.3207 71.7555L45.7967 71.8326C45.9565 71.8513 46.1172 71.8617 46.278 71.8638H53.5644L54.0519 71.8398C54.2143 71.824 54.3759 71.8003 54.5354 71.7678C54.6948 71.7352 54.854 71.6968 55.0103 71.6491C55.1661 71.602 55.3195 71.5471 55.4698 71.4846L55.9124 71.2763C56.0562 71.1992 56.1959 71.115 56.3311 71.0243L56.7239 70.7336L57.0863 70.4046L57.4143 70.0432L57.705 69.6504L57.9559 69.2307L58.1652 68.7891L58.3298 68.3286C58.3778 68.1723 58.4172 68.0139 58.4484 67.8536C58.4796 67.6934 58.5047 67.5328 58.5204 67.3704L58.5444 66.8819V58.932H66.4924L66.981 58.908L67.4644 58.836L67.9383 58.7174L68.3988 58.5528C68.5494 58.4905 68.6968 58.4206 68.8404 58.3435L69.2602 58.0926L69.653 57.8008C69.779 57.6978 69.8996 57.5884 70.0143 57.4728L70.3423 57.1104C70.4466 56.9843 70.5434 56.8531 70.634 56.7176C70.7247 56.582 70.8084 56.4419 70.885 56.2979L71.0943 55.8563L71.2589 55.3958L71.3775 54.9219L71.4495 54.4387L71.4735 53.9502V46.6888L71.4495 46.2003L71.3775 45.7171L71.2589 45.2422L71.0943 44.7816L70.885 44.34L70.634 43.9203L70.3423 43.5275C70.2393 43.4014 70.1298 43.2808 70.0143 43.1662C69.8994 43.0506 69.7788 42.9407 69.653 42.8371L69.2602 42.5464C69.1247 42.4556 68.9846 42.3719 68.8404 42.2955L68.3988 42.0862L67.9383 41.9216C67.782 41.8736 67.6247 41.8342 67.4644 41.803C67.3042 41.7718 67.1436 41.7467 66.9812 41.731C66.8189 41.7146 66.6559 41.7066 66.4927 41.707H58.5447V33.756L58.5207 33.2675C58.505 33.104 58.4812 32.9424 58.4487 32.7822C58.4162 32.6219 58.3778 32.4635 58.3311 32.3072L58.1666 31.8459L57.9572 31.4032C57.8812 31.2584 57.7967 31.1179 57.7063 30.9824L57.4156 30.5878L57.0876 30.2243L56.7263 29.8942L56.3335 29.6014C56.198 29.5096 56.0586 29.4254 55.9148 29.3483L55.4722 29.1368L55.0116 28.9702L54.5378 28.8494C54.3772 28.816 54.2159 28.792 54.0535 28.7744L53.565 28.7483H46.2786L45.79 28.7744C45.6274 28.7911 45.4658 28.8161 45.3058 28.8494C45.1452 28.8816 44.9871 28.9222 44.8319 28.9702L44.3714 29.1368L43.9287 29.3483C43.785 29.4254 43.6455 29.5096 43.51 29.6014L43.1172 29.8942C42.9914 29.9982 42.8708 30.1083 42.7559 30.2243C42.6406 30.3399 42.5311 30.4612 42.4279 30.5878L42.1372 30.9824C42.0466 31.1179 41.9623 31.2584 41.8863 31.4032C41.8103 31.548 41.7394 31.695 41.677 31.8459C41.6146 31.9968 41.5604 32.1512 41.5124 32.3072L41.3938 32.7822L41.3228 33.2675C41.3065 33.4298 41.2985 33.5929 41.2988 33.756V41.707H33.3508C33.1893 41.709 33.0281 41.7194 32.8676 41.7382C32.7071 41.7558 32.5479 41.7819 32.3906 41.8163C32.2332 41.8507 32.0759 41.8912 31.9228 41.9403C31.7685 41.9883 31.6169 42.0447 31.4687 42.1091L31.0343 42.3206L30.6218 42.5736L30.2354 42.8654L29.8802 43.1934L29.5572 43.5547L29.2719 43.9454L29.026 44.3622C28.9503 44.5048 28.8817 44.6512 28.8207 44.8008C28.7594 44.9499 28.706 45.1019 28.6594 45.2571C28.6127 45.4123 28.574 45.5686 28.5428 45.727C28.5117 45.8854 28.4884 46.0454 28.473 46.2062L28.449 46.6896V53.9771L28.473 54.4656L28.545 54.9491L28.6636 55.424L28.8282 55.8846L29.0375 56.3262L29.2884 56.7459L29.5802 57.1387C29.6832 57.2648 29.7926 57.3854 29.9082 57.5L30.2706 57.8291L30.6623 58.1198L31.082 58.3707L31.5236 58.58L31.9842 58.7446C32.1404 58.7926 32.2978 58.832 32.458 58.8632C32.6183 58.8944 32.7788 58.9195 32.9415 58.9352C33.1038 58.9516 33.2669 58.9596 33.43 58.9592L33.429 58.9574ZM44.7154 43.375V33.7814C44.7155 33.6754 44.7256 33.5697 44.7455 33.4656C44.7663 33.3614 44.7975 33.2603 44.8383 33.1624C44.8788 33.0647 44.9287 32.9712 44.9874 32.8832C45.0468 32.7947 45.1135 32.7123 45.1884 32.6374C45.2634 32.5624 45.3447 32.4958 45.4332 32.4363C45.5214 32.3779 45.6149 32.328 45.7124 32.2872C45.8114 32.2467 45.9124 32.2163 46.0156 32.1955C46.1196 32.1747 46.2254 32.1642 46.3314 32.1643H53.6167C53.7227 32.1642 53.8285 32.1747 53.9324 32.1955C54.0367 32.2163 54.1378 32.2464 54.2356 32.2872C54.3333 32.3277 54.4268 32.3777 54.5148 32.4363C54.6034 32.4958 54.6847 32.5624 54.7596 32.6374C54.8346 32.7123 54.9023 32.7947 54.9607 32.8832C55.0201 32.971 55.0704 33.0645 55.1108 33.1624C55.1514 33.2603 55.1818 33.3614 55.2026 33.4656C55.2234 33.5696 55.2338 33.6753 55.2338 33.7814V43.3752C55.2321 43.4851 55.2408 43.595 55.2599 43.7032C55.2796 43.8115 55.31 43.9168 55.3506 44.02C55.3902 44.1228 55.4401 44.2213 55.4996 44.3139C55.559 44.4066 55.6271 44.4935 55.7028 44.5734C55.7787 44.6528 55.8621 44.7247 55.9519 44.788C56.0415 44.8515 56.1372 44.9056 56.2383 44.9515C56.3385 44.9962 56.4428 45.0311 56.5498 45.0558C56.657 45.0808 56.7666 45.0944 56.877 45.0974H66.4676C66.5733 45.0973 66.6787 45.1077 66.7823 45.1286C66.8865 45.1493 66.9883 45.18 67.0866 45.2203C67.1844 45.2608 67.2772 45.311 67.3658 45.3704C67.4538 45.4292 67.5358 45.4966 67.6106 45.5715C67.6855 45.6464 67.7522 45.7278 67.8116 45.8163C67.8701 45.9044 67.92 45.9979 67.9607 46.0955C68.0015 46.1932 68.0322 46.2948 68.0524 46.3987C68.0732 46.5026 68.0837 46.6084 68.0836 46.7144V54.003C68.0837 54.1086 68.0732 54.214 68.0524 54.3176C68.0327 54.4219 68.0015 54.523 67.9607 54.6219C67.92 54.7195 67.8701 54.813 67.8116 54.9011C67.7522 54.9896 67.6855 55.071 67.6106 55.1459C67.5356 55.2208 67.4532 55.2875 67.3658 55.347C67.2783 55.4064 67.1844 55.4552 67.0866 55.496C66.9887 55.5368 66.8866 55.568 66.7823 55.5888C66.6787 55.6097 66.5733 55.6201 66.4676 55.62H56.877C56.7669 55.62 56.6571 55.6304 56.549 55.6512C56.4407 55.6731 56.3364 55.7043 56.2343 55.7459C56.1322 55.7875 56.0354 55.8387 55.9426 55.9C55.8498 55.9614 55.7655 56.0291 55.6874 56.1062C55.6091 56.1837 55.5383 56.2684 55.4759 56.3592C55.4138 56.45 55.3608 56.5467 55.3175 56.6478C55.2748 56.7488 55.2415 56.8539 55.2186 56.9614C55.1956 57.0688 55.1831 57.179 55.181 57.2886V66.9094C55.1811 67.015 55.1706 67.1204 55.1498 67.224C55.1291 67.3282 55.0984 67.4301 55.058 67.5283C55.0173 67.6259 54.9674 67.7194 54.909 67.8075C54.8495 67.896 54.7828 67.9774 54.7079 68.0523C54.633 68.1272 54.5506 68.1939 54.462 68.2534C54.3745 68.3128 54.2809 68.3628 54.1828 68.4024C54.085 68.443 53.9839 68.4744 53.8796 68.4952C53.776 68.516 53.6706 68.5264 53.565 68.5264H46.2786C46.1729 68.5265 46.0675 68.516 45.9639 68.4952C45.8596 68.4744 45.7586 68.4432 45.6607 68.4024C45.5628 68.3616 45.469 68.3128 45.3804 68.2534C45.2919 68.1939 45.2106 68.1272 45.1356 68.0523C45.0607 67.9774 44.994 67.896 44.9346 67.8075C44.8762 67.7194 44.8262 67.6259 44.7855 67.5283C44.745 67.4294 44.7135 67.3283 44.6938 67.224C44.6729 67.1204 44.6625 67.015 44.6626 66.9094V57.2614C44.6627 57.1518 44.6519 57.0426 44.6303 56.9352C44.6084 56.828 44.5772 56.7238 44.5356 56.6227C44.494 56.5216 44.4418 56.4248 44.3815 56.3342C44.3209 56.2433 44.2515 56.1585 44.1743 56.0811C44.0968 56.0038 44.012 55.9341 43.9212 55.8728C43.8302 55.8123 43.7336 55.7607 43.6327 55.7187C43.5314 55.6774 43.4264 55.6457 43.3191 55.624C43.2119 55.6022 43.1034 55.5918 42.993 55.5918H33.4295C33.3235 55.5918 33.2177 55.5814 33.1138 55.5606C33.0095 55.5398 32.9084 55.5096 32.8106 55.4688C32.713 55.4281 32.6195 55.3782 32.5314 55.3198C32.4428 55.2603 32.3615 55.1936 32.2866 55.1187C32.2116 55.0438 32.1439 54.9614 32.0855 54.8728C32.0265 54.7851 31.9765 54.6915 31.9364 54.5936C31.8959 54.4958 31.8644 54.3947 31.8436 54.2904C31.8228 54.1865 31.8124 54.0807 31.8124 53.9747V46.6872C31.8146 46.5819 31.826 46.4779 31.849 46.3758C31.8704 46.2732 31.9021 46.173 31.9436 46.0768C31.9844 45.9803 32.035 45.8881 32.0946 45.8019C32.154 45.7155 32.2207 45.6352 32.2956 45.5614C32.3701 45.4878 32.4518 45.4219 32.5394 45.3646C32.6266 45.3064 32.7194 45.2572 32.8164 45.2176C32.9134 45.178 33.0138 45.1477 33.1164 45.127C33.2196 45.1072 33.3236 45.0968 33.429 45.0968H43.0458C43.1572 45.0958 43.2676 45.0832 43.3759 45.0592C43.4842 45.0352 43.5906 45.0019 43.6927 44.9582C43.7948 44.9144 43.8916 44.8603 43.9834 44.7968C44.0751 44.7334 44.1604 44.6614 44.2375 44.5811C44.3146 44.5008 44.3844 44.4144 44.4447 44.3216C44.505 44.2288 44.5551 44.1288 44.5967 44.0259C44.6372 43.9225 44.6675 43.8154 44.6874 43.7062C44.7082 43.5968 44.7164 43.4864 44.7154 43.375Z"></path>
</g>
<defs>
<clipPath id="clip0_3041_566">
<rect fill="white" height="100" width="100"></rect>
</clipPath>
</defs>
</svg>
