<svg xmlns="http://www.w3.org/2000/svg" fill="none" viewBox="0 0 100 100" height="100" width="100">
<mask height="99" width="80" y="0" x="10" maskUnits="userSpaceOnUse" style="mask-type:luminance" id="mask0_3041_574">
<path fill="white" d="M10.1333 0.800049H89.3333V98.6001H10.1333V0.800049Z"></path>
</mask>
<g mask="url(#mask0_3041_574)">
<path fill="#007E40" d="M88.1377 54.3333C87.4366 49.0072 86.5699 45.5021 85.6523 41.7896C84.7867 38.276 83.7993 34.2949 82.8033 28.0656C81.8846 22.3843 82.7334 18.2552 83.4094 14.9416C83.9979 12.0531 84.5083 9.5624 83.5302 7.21253C82.8198 5.49493 81.1657 4.9824 79.8323 4.56667C79.0521 4.324 78.3166 4.0896 77.7969 3.68133C73.951 0.636532 69.4481 0.0645323 65.1262 2.05093C62.1294 3.43013 60.3283 5.26027 59.7907 7.48107C59.471 8.7904 59.6617 9.97067 59.9646 10.8645C58.1803 12.2699 56.4137 14.5853 57.0022 17.4917C57.7043 21.0053 63.6803 24.2323 66.8323 25.7064C66.4854 29.3419 65.351 39.8117 62.9001 48.1917C61.0553 54.5323 60.9606 59.3989 61.3843 62.7645C56.0499 59.1821 46.4363 53.8208 35.6105 52.9803C20.3073 51.8083 12.8241 58.6189 12.5209 58.9043C11.7585 59.6157 11.7155 60.796 12.4262 61.5595C12.7648 61.923 13.2334 62.1379 13.7298 62.1575C14.2262 62.177 14.7102 61.9995 15.0763 61.6637C15.1451 61.6117 21.7795 55.6867 35.3158 56.7451C50.247 57.8981 63.2211 68.8024 63.3513 68.9064L66.2086 66.5648C66.1825 66.4949 63.1867 60.6315 66.5118 49.2587C69.6211 38.6149 70.6523 25.2472 70.6953 24.6837L70.7995 23.3389L69.5609 22.8099C65.5942 21.1005 60.9691 18.1952 60.6838 16.7547C60.4755 15.7048 61.2379 14.7683 61.9827 14.1181C63.1953 14.9848 65.0745 16.0869 66.9275 16.0869H67.0318C67.863 16.0693 69.8723 15.7224 70.6609 12.8515C70.9723 11.7056 70.9641 10.6213 70.9641 10.5005C70.9379 9.46827 70.0974 8.65253 69.0849 8.65253H69.0494C68.0107 8.67013 67.1881 9.52853 67.1963 10.5693C67.2046 11.264 67.0057 12.1829 66.9537 12.3224C66.339 12.3651 65.4817 11.9317 64.7027 11.4109L63.8705 10.3704C63.8622 10.3621 63.1955 9.408 63.4382 8.37573C63.6977 7.34347 64.8153 6.33707 66.6945 5.47787C70.4966 3.72587 73.5705 5.1392 75.4673 6.64027C76.5329 7.48187 77.7371 7.8632 78.7067 8.16747C79.2006 8.3144 79.9275 8.5488 80.0662 8.67067C80.5942 9.9456 80.2307 11.7237 79.7286 14.1875C79.0275 17.6147 78.0662 22.3072 79.0881 28.6656C80.1099 35.0499 81.1142 39.1187 81.9974 42.7011C82.9329 46.4667 83.7379 49.7104 84.4057 54.8197C85.6003 63.9717 85.9641 68.9947 84.7347 72.8373C84.0849 74.8405 83.8681 76.9051 83.6515 78.9008C83.3139 81.9976 83.0193 84.6779 81.3225 86.404C80.3953 87.3416 78.6809 87.6624 77.0182 87.9832C75.7881 88.2083 74.515 88.4427 73.3974 88.9552C66.9369 91.9125 59.6881 91.3229 54.4131 90.8979C50.5422 90.5771 47.7622 90.3603 46.0121 91.4792C35.3422 98.324 18.2027 93.1627 13.1798 89.952C12.9711 89.8193 12.7384 89.729 12.4948 89.6864C12.2512 89.6438 12.0016 89.6497 11.7602 89.7037C11.5189 89.7577 11.2906 89.8587 11.0884 90.0011C10.8862 90.1435 10.7141 90.3243 10.5819 90.5333C10.3148 90.9549 10.2249 91.4649 10.3318 91.9524C10.4387 92.4399 10.7338 92.8655 11.1529 93.1365C14.8163 95.4699 23.6934 98.6011 32.8227 98.6011C38.131 98.6011 43.5353 97.5427 48.0478 94.6459C48.7238 94.2115 51.703 94.4541 54.1102 94.6459C59.8091 95.1053 67.6041 95.7387 74.9571 92.3813C75.6582 92.0605 76.6539 91.8781 77.7113 91.6781C79.8414 91.2792 82.2582 90.8283 83.9987 89.0501C86.6145 86.3877 87.0123 82.7877 87.3934 79.3085C87.5841 77.5043 87.7923 75.6304 88.3206 73.9824C89.7582 69.4627 89.4113 64.0501 88.1382 54.3344"></path>
</g>
</svg>
