<svg xmlns="http://www.w3.org/2000/svg" fill="none" viewBox="0 0 200 47" height="47" width="200">
<g clip-path="url(#clip0_3041_676)">
<path fill="#002613" d="M0 0.0462991H26.6667V4.90741H16.2037V19.537H10.4167V4.90741H0V0.0462991ZM26.6667 46.2037H4.67593V26.713H10.463V41.3426H26.6667V46.2037ZM48.4259 13.1481H40.0463V19.4907H34.2593V0H49.6296C55.5093 0 58.3796 2.87037 58.3796 6.57407C58.3796 9.21296 56.8056 11.1574 53.9352 12.1759L59.8148 19.537H53.3333L48.4259 13.1481ZM40.0463 41.3426H56.4815V46.2037H34.2593V26.713H56.0185V31.5741H40.0463V34.1667H53.1018V38.5648H40.0463V41.3426ZM52.4074 6.66667C52.4074 5.50926 51.6667 4.90741 49.9074 4.90741H40.0926V8.47222H49.9074C51.6667 8.42593 52.4074 7.82407 52.4074 6.66667ZM83.75 16.2037H71.4815L69.5833 19.4907H63.3333L75.0926 0H80.2778L92.037 19.4907H85.6481L83.75 16.2037ZM71.0648 46.2037H65.2778V26.713H71.0648V46.2037ZM81.0648 11.5741L77.5926 5.55556L74.1204 11.5741H81.0648ZM100.694 32.8241C96.25 31.2963 93.8426 30.9259 90.9259 30.9259C87.2685 30.9259 86.4352 31.5278 86.4352 32.3611C86.4352 32.963 86.8981 33.287 88.4259 33.4259L96.8519 34.1667C102.685 34.6759 104.722 37.037 104.722 40.1852C104.722 43.9352 100.648 46.713 92.4074 46.713C88.6574 46.713 83.7037 45.9259 79.3056 44.4907L82.3611 39.7222C86.713 41.2963 90.8796 42.037 93.8889 42.037C97.8704 42.037 98.75 41.4352 98.75 40.6481C98.75 40 98.3333 39.537 96.5741 39.3981L88.3796 38.6111C82.8241 38.1019 80.6944 36.0185 80.6944 32.8241C80.6944 29.4907 83.8426 26.2963 92.0833 26.2963C95.6481 26.2963 99.4444 26.9907 103.519 28.4722L100.694 32.8241ZM107.222 19.537H102.037L90.2778 0.0462991H96.7593L104.722 13.3796L112.685 0.0462991H118.981L107.222 19.537ZM130.417 37.4537V26.7593H136.204V37.6852C136.204 43.6574 132.222 46.6667 124.167 46.6667C116.065 46.6667 112.13 43.6111 112.13 37.6852V26.7593H117.917V37.4537C117.917 40.3704 119.722 41.6204 124.213 41.6204C128.611 41.5741 130.417 40.3241 130.417 37.4537ZM129.769 14.6759H146.204V19.537H123.981V0.0462991H145.741V4.90741H129.769V7.5H142.824V11.8981H129.769V14.6759ZM159.12 39.8611H150.741V46.2037H144.954V26.713H160.324C166.204 26.713 169.074 29.5833 169.074 33.287C169.074 35.9259 167.5 37.8704 164.63 38.8889L170.509 46.25H164.028L159.12 39.8611ZM163.056 33.3333C163.056 32.1759 162.315 31.5741 160.556 31.5741H150.741V35.1389H160.556C162.361 35.1389 163.056 34.4907 163.056 33.3333ZM176.991 19.537H155V0.0462991H160.787V14.6759H176.991V19.537ZM183.565 41.3426H200V46.2037H177.778V26.713H199.537V31.5741H183.565V34.1667H196.62V38.5648H183.565V41.3426ZM181.898 7.36111H188.426V1.66667H193.056V7.36111H199.537V11.7593H193.009V17.4537H188.38V11.7593H181.852V7.36111H181.898Z"></path>
</g>
<defs>
<clipPath id="clip0_3041_676">
<rect fill="white" height="46.7593" width="200"></rect>
</clipPath>
</defs>
</svg>
