<svg xmlns="http://www.w3.org/2000/svg" fill="none" viewBox="0 0 432 35" height="35" width="432">
<path fill="black" d="M21.2948 19.3197C18.9965 21.2229 15.8723 21.9052 12.3172 21.9052H8.0798V34.6175H0V0.215454H12.3172C15.8723 0.215454 18.9965 0.897748 21.2948 2.80099C23.593 4.70423 24.8858 7.32568 24.8858 11.0244C24.8858 14.7591 23.593 17.3805 21.2948 19.3197ZM15.0464 7.3975C14.0409 6.71521 12.8918 6.46383 11.1681 6.46383H8.04389V15.6928H11.1681C12.9277 15.6928 14.0768 15.4414 15.0464 14.7591C15.9801 14.0768 16.6983 12.8199 16.6983 11.0603C16.6983 9.30074 16.016 8.1157 15.0464 7.3975Z"></path>
<path fill="black" d="M67.3675 0.179565C57.7077 0.179565 50.3461 6.67932 50.3461 17.4883C50.3461 28.2973 57.7077 34.7252 67.3675 34.7252C77.0274 34.7252 84.389 28.2973 84.389 17.4883C84.4249 6.67932 77.0274 0.179565 67.3675 0.179565ZM67.3675 27.7227C61.9451 27.7227 58.0668 23.8803 58.0668 17.4883C58.0668 11.0963 61.9451 6.85887 67.3675 6.85887C72.79 6.85887 76.6683 11.0963 76.6683 17.4883C76.6683 23.8803 72.79 27.7227 67.3675 27.7227Z"></path>
<path fill="black" d="M131.252 19.3197C128.954 21.2229 125.829 21.9052 122.274 21.9052H118.037V34.6175H109.957V0.215454H122.274C125.829 0.215454 128.954 0.897748 131.252 2.80099C133.55 4.70423 134.843 7.32568 134.843 11.0244C134.843 14.7591 133.55 17.3805 131.252 19.3197ZM125.004 7.3975C123.998 6.71521 122.849 6.46383 121.125 6.46383H118.001V15.6928H121.125C122.885 15.6928 124.034 15.4414 125.004 14.7591C125.937 14.0768 126.655 12.8199 126.655 11.0603C126.655 9.30074 125.973 8.1157 125.004 7.3975Z"></path>
<path fill="black" d="M180.736 31.8524C178.33 33.7556 175.206 34.6175 171.615 34.6175C166.731 34.6175 162.386 32.0678 159.657 29.5541L163.571 23.8085C166.013 26.3581 169.784 28.0459 172.369 28.0459C174.919 28.0459 176.858 26.8249 176.858 24.5985C176.858 22.3003 174.38 21.4384 172.908 20.8998C171.435 20.3611 168.922 19.4993 167.773 18.9965C166.947 18.6015 165.223 17.9551 163.787 16.5546C162.314 15.19 161.165 13.2509 161.165 10.0549C161.165 6.82294 162.709 4.30923 164.684 2.69327C166.588 1.07731 169.676 0 173.554 0C177.468 0 181.957 1.86733 184.255 4.12968L180.88 9.65985C178.941 7.7207 175.888 6.24838 173.375 6.24838C170.825 6.24838 168.994 7.21796 168.994 9.26484C168.994 11.3117 170.897 12.1017 172.405 12.6763C173.877 13.2509 176.355 14.1486 177.432 14.5796C178.366 14.9387 180.593 15.8005 182.101 17.3087C183.501 18.7092 184.722 20.7561 184.722 23.8085C184.686 27.0404 183.178 29.9491 180.736 31.8524Z"></path>
<path fill="black" d="M238.228 19.9303C238.228 24.7422 237.403 28.046 234.961 30.6674C232.591 33.253 228.892 34.7253 223.936 34.7253C218.945 34.7253 215.282 33.253 212.84 30.6674C210.47 28.046 209.608 24.7422 209.608 19.9303V0.0360107H217.688V19.9303C217.688 22.3363 217.867 24.2395 219.017 25.6041C220.094 26.8969 221.674 27.7228 223.9 27.7228C226.127 27.7228 227.707 26.8969 228.784 25.6041C229.933 24.2036 230.113 22.3363 230.113 19.9303V0.0360107H238.193V19.9303H238.228Z"></path>
<path fill="black" d="M295.469 28.9437C293.782 30.452 289.76 34.6894 280.531 34.6894C271.23 34.6894 263.042 28.5487 263.042 17.3447C263.042 6.14073 271.23 0.0718994 280.603 0.0718994C289.508 0.0718994 293.351 4.74023 294.428 5.92527L289.221 10.45C287.821 8.90582 285.163 6.60756 280.603 6.60756C275.216 6.60756 271.015 10.5577 271.015 17.3806C271.015 24.2036 275.288 28.1537 280.746 28.1537C286.205 28.1537 287.749 25.9991 287.749 25.9991V21.0076H280.674V15.0106H295.434V28.9437H295.469Z"></path>
<path fill="black" d="M354.613 34.6534H345.851L343.409 27.7227H331.128L328.686 34.6534H320.319L333.283 0.179565H341.65L354.613 34.6534ZM341.542 21.4384L337.269 9.0853L332.996 21.4384H341.542Z"></path>
<path fill="black" d="M406.683 34.6534H397.311L390.093 21.4743H387.543V34.6534H379.463V0.215454H391.817C395.659 0.215454 398.639 1.00548 400.902 2.65735C403.2 4.34513 404.708 7.11022 404.708 10.5217C404.708 17.0574 400.507 19.607 397.993 20.397L406.683 34.6534ZM394.797 7.36159C393.792 6.60748 392.499 6.46383 390.667 6.46383H387.471V15.2978H390.667C392.499 15.2978 393.792 15.0823 394.797 14.3641C395.838 13.61 396.557 12.6763 396.557 10.8808C396.557 9.12119 395.874 8.11571 394.797 7.36159Z"></path>
<path fill="black" d="M425.788 34.6893C429.219 34.6893 432 31.9079 432 28.4769C432 25.0458 429.219 22.2644 425.788 22.2644C422.356 22.2644 419.575 25.0458 419.575 28.4769C419.575 31.9079 422.356 34.6893 425.788 34.6893Z"></path>
</svg>
