<svg xmlns="http://www.w3.org/2000/svg" fill="none" viewBox="0 0 72 72" height="72" width="72">
<g clip-path="url(#clip0_3041_528)">
<mask height="72" width="72" y="0" x="0" maskUnits="userSpaceOnUse" style="mask-type:luminance" id="mask0_3041_528">
<path fill="white" d="M72 0H0V72H72V0Z"></path>
</mask>
<g mask="url(#mask0_3041_528)">
<path stroke-width="2" stroke="#007E40" fill="white" d="M36 71C55.33 71 71 55.33 71 36C71 16.67 55.33 1 36 1C16.67 1 1 16.67 1 36C1 55.33 16.67 71 36 71Z"></path>
<path fill="#007E40" d="M47.1658 25.5242C46.9827 25.1931 46.6267 24.9907 46.2437 25.0003C43.2076 25.0762 36.3646 26.786 32.4981 33.0354C28.3178 30.4387 23.7691 30.8065 22.0993 31.2836C21.7638 31.3794 21.5014 31.6376 21.404 31.9679C20.7674 34.1257 20.3959 39.3729 24.1926 43.1091C25.9856 44.8734 27.8381 45.5862 29.5183 45.6141C30.8391 45.636 31.9923 45.233 32.8552 44.6748C33.4134 45.2539 34.0037 45.6976 34.5375 46.0008C35.7795 46.7064 37.8435 47.2925 40.1183 46.8421C42.4388 46.3827 44.8522 44.87 46.7748 41.593C50.6009 35.0716 48.6424 28.1955 47.1658 25.5242ZM31.6383 43.0571C31.3937 42.6312 31.1784 42.167 31.0066 41.6653C30.3649 39.7913 30.3576 37.4809 31.5465 34.8204C28.3621 32.7804 24.88 32.8033 23.2259 33.0885C22.814 35.1206 22.8628 38.9609 25.6354 41.6893C27.11 43.1404 28.4758 43.5886 29.5527 43.6065C30.3855 43.6203 31.1052 43.3784 31.6383 43.0571ZM34.0647 34.3717C37.1743 29.0719 42.7516 27.3278 45.6573 27.0476C46.8634 29.6639 48.1174 35.2893 45.0079 40.589C43.3394 43.4328 41.3901 44.5421 39.7159 44.8736C38.8594 45.0433 38.0418 45.0158 37.3287 44.8837L42.851 34.921C43.1207 34.4343 42.9385 33.8245 42.4437 33.5591C41.9491 33.2935 41.3295 33.473 41.0597 33.9597L38.1714 39.1707L37.8219 38.1388C37.6437 37.6128 37.0659 37.3285 36.5313 37.5039C35.9968 37.6792 35.708 38.2479 35.8862 38.7737L36.8364 41.5789L35.401 44.1685C34.5452 43.6332 33.4677 42.5642 32.9401 41.0239C32.3947 39.4315 32.3963 37.2154 34.0647 34.3717Z" clip-rule="evenodd" fill-rule="evenodd"></path>
</g>
</g>
<defs>
<clipPath id="clip0_3041_528">
<rect fill="white" height="72" width="72"></rect>
</clipPath>
</defs>
</svg>
