<svg xmlns="http://www.w3.org/2000/svg" fill="none" viewBox="0 0 72 72" height="72" width="72">
<g clip-path="url(#clip0_3041_511)">
<mask height="72" width="72" y="0" x="0" maskUnits="userSpaceOnUse" style="mask-type:luminance" id="mask0_3041_511">
<path fill="white" d="M72 0H0V72H72V0Z"></path>
</mask>
<g mask="url(#mask0_3041_511)">
<path stroke-width="2" stroke="#007E40" fill="white" d="M36 71C55.33 71 71 55.33 71 36C71 16.67 55.33 1 36 1C16.67 1 1 16.67 1 36C1 55.33 16.67 71 36 71Z"></path>
<path fill="#007E40" d="M46.7799 39.0695C48.9548 31.8491 44.106 25.9945 35.8725 25.9945C27.6386 25.9945 22.7898 31.8491 24.9647 39.0695C27.2037 46.5013 32.2214 52.5599 35.8725 52.5599C39.5236 52.5599 44.5413 46.5012 46.7799 39.0695ZM48.1587 39.4848C45.7576 47.4561 40.3381 53.9999 35.8725 53.9999C31.4069 53.9999 25.9874 47.4562 23.5859 39.4848C21.1211 31.3021 26.7095 24.5544 35.8725 24.5544C45.0351 24.5544 50.6235 31.3021 48.1587 39.4848Z"></path>
<path fill="#007E40" d="M30.2452 31.1797C30.2452 32.0469 29.8629 32.75 29.3917 32.75C28.9204 32.75 28.5381 32.0469 28.5381 31.1797C28.5381 30.3124 28.9204 29.6093 29.3917 29.6093C29.8629 29.6093 30.2452 30.3124 30.2452 31.1797ZM34.5659 31.1797C34.5659 32.0469 34.1835 32.75 33.7123 32.75C33.2411 32.75 32.8587 32.0469 32.8587 31.1797C32.8587 30.3124 33.2411 29.6093 33.7123 29.6093C34.1835 29.6093 34.5659 30.3124 34.5659 31.1797ZM38.8864 31.1797C38.8864 32.0469 38.5041 32.75 38.0329 32.75C37.5616 32.75 37.1793 32.0469 37.1793 31.1797C37.1793 30.3124 37.5616 29.6093 38.0329 29.6093C38.5041 29.6093 38.8864 30.3124 38.8864 31.1797ZM43.2071 31.1797C43.2071 32.0469 42.8247 32.75 42.3535 32.75C41.8823 32.75 41.4999 32.0469 41.4999 31.1797C41.4999 30.3124 41.8823 29.6093 42.3535 29.6093C42.8247 29.6093 43.2071 30.3124 43.2071 31.1797ZM30.2452 36.5781C30.2452 37.4453 29.8629 38.1484 29.3917 38.1484C28.9204 38.1484 28.5381 37.4453 28.5381 36.5781C28.5381 35.7108 28.9204 35.0077 29.3917 35.0077C29.8629 35.0077 30.2452 35.7108 30.2452 36.5781ZM34.5659 36.5781C34.5659 37.4453 34.1835 38.1484 33.7123 38.1484C33.2411 38.1484 32.8587 37.4453 32.8587 36.5781C32.8587 35.7108 33.2411 35.0077 33.7123 35.0077C34.1835 35.0077 34.5659 35.7108 34.5659 36.5781ZM38.8864 36.5781C38.8864 37.4453 38.5041 38.1484 38.0329 38.1484C37.5616 38.1484 37.1793 37.4453 37.1793 36.5781C37.1793 35.7108 37.5616 35.0077 38.0329 35.0077C38.5041 35.0077 38.8864 35.7108 38.8864 36.5781ZM43.2071 36.5781C43.2071 37.4453 42.8247 38.1484 42.3535 38.1484C41.8823 38.1484 41.4999 37.4453 41.4999 36.5781C41.4999 35.7108 41.8823 35.0077 42.3535 35.0077C42.8247 35.0077 43.2071 35.7108 43.2071 36.5781ZM32.4055 41.9765C32.4055 42.8437 32.0232 43.5468 31.552 43.5468C31.0807 43.5468 30.6984 42.8437 30.6984 41.9765C30.6984 41.1092 31.0807 40.4061 31.552 40.4061C32.0232 40.4061 32.4055 41.1092 32.4055 41.9765ZM36.7261 41.9765C36.7261 42.8437 36.3438 43.5468 35.8726 43.5468C35.4013 43.5468 35.019 42.8437 35.019 41.9765C35.019 41.1092 35.4013 40.4061 35.8726 40.4061C36.3438 40.4061 36.7261 41.1092 36.7261 41.9765ZM41.0468 41.9765C41.0468 42.8437 40.6644 43.5468 40.1932 43.5468C39.7219 43.5468 39.3396 42.8437 39.3396 41.9765C39.3396 41.1092 39.7219 40.4061 40.1932 40.4061C40.6644 40.4061 41.0468 41.1092 41.0468 41.9765ZM34.5659 47.3749C34.5659 48.2421 34.1835 48.9452 33.7123 48.9452C33.2411 48.9452 32.8587 48.2421 32.8587 47.3749C32.8587 46.5076 33.2411 45.8045 33.7123 45.8045C34.1835 45.8045 34.5659 46.5076 34.5659 47.3749ZM38.8864 47.3749C38.8864 48.2421 38.5041 48.9452 38.0329 48.9452C37.5616 48.9452 37.1793 48.2421 37.1793 47.3749C37.1793 46.5076 37.5616 45.8045 38.0329 45.8045C38.5041 45.8045 38.8864 46.5076 38.8864 47.3749ZM41.1768 18.7266C41.1768 21.6595 38.8019 24.0367 35.8725 24.0367C32.9434 24.0367 30.5686 21.6594 30.5686 18.7266C30.5686 18.3289 30.2462 18.0066 29.8486 18.0066C29.4509 18.0066 29.1285 18.3289 29.1285 18.7266C29.1285 22.4544 32.1478 25.4767 35.8725 25.4767C39.5975 25.4767 42.6168 22.4545 42.6168 18.7266C42.6168 18.3289 42.2945 18.0066 41.8968 18.0066C41.4992 18.0066 41.1768 18.3289 41.1768 18.7266Z"></path>
<path fill="#007E40" d="M36.5924 24.1555V18.7198C36.5924 18.3221 36.27 17.9998 35.8724 17.9998C35.4747 17.9998 35.1523 18.3221 35.1523 18.7198V24.1555C35.1523 24.5531 35.4747 24.8755 35.8724 24.8755C36.27 24.8755 36.5924 24.5531 36.5924 24.1555Z"></path>
</g>
</g>
<defs>
<clipPath id="clip0_3041_511">
<rect fill="white" height="72" width="72"></rect>
</clipPath>
</defs>
</svg>
