<svg xmlns="http://www.w3.org/2000/svg" fill="none" viewBox="0 0 72 72" height="72" width="72">
<g clip-path="url(#clip0_3041_520)">
<mask height="72" width="72" y="0" x="0" maskUnits="userSpaceOnUse" style="mask-type:luminance" id="mask0_3041_520">
<path fill="white" d="M72 0H0V72H72V0Z"></path>
</mask>
<g mask="url(#mask0_3041_520)">
<path stroke-width="2" stroke="#007E40" fill="white" d="M36 71C55.33 71 71 55.33 71 36C71 16.67 55.33 1 36 1C16.67 1 1 16.67 1 36C1 55.33 16.67 71 36 71Z"></path>
<path fill="#007E40" d="M32.0868 18C32.466 18 32.8452 18 33.2245 18C34.2937 18.2838 35.3659 18.5569 36.4314 18.8538C37.553 19.1669 38.6808 19.2562 39.8389 19.0946C40.6984 18.9746 41.567 18.8908 42.4333 18.8646C43.3711 18.8362 44.2328 19.1231 44.9175 19.8077C45.4837 20.3731 46.0301 20.9592 46.5742 21.5469C47.385 22.4231 48.1761 23.3185 48.9991 24.1831C49.1617 24.3546 49.4186 24.4631 49.6511 24.5315C50.5159 24.7854 51.174 25.5469 51.2713 26.4146C51.3078 26.7408 51.3823 27.0662 51.4765 27.3808C51.9211 28.8708 52.3953 30.3515 52.8201 31.8469C52.9682 32.3685 53.0047 32.9231 53.0921 33.4623V35.77C53.0678 35.8669 53.0344 35.9623 53.0199 36.0608C52.9295 36.6538 52.8816 37.2569 52.7501 37.84C51.8952 41.6346 49.8768 44.6738 46.8774 47.0685C45.1098 48.48 43.1104 49.4385 40.9811 50.1208C40.1626 50.3831 39.8077 50.9115 39.7416 51.7423C39.6641 52.7238 39.139 53.3992 38.2491 53.7831C38.0683 53.8615 37.8821 53.9277 37.6989 54H32.5428C32.5276 53.9808 32.5162 53.95 32.4972 53.9446C31.3026 53.5785 30.7349 52.7646 30.6202 51.5008C30.554 50.7777 30.1574 50.1785 29.3944 49.9131C25.999 48.7323 23.1553 46.7508 20.9918 43.8269C18.9354 41.0492 17.8579 37.9238 17.9111 34.4308C17.9415 32.4546 18.3511 30.55 19.0783 28.7192C19.2835 28.2023 19.304 27.7177 19.0745 27.2015C18.8306 26.6523 18.7804 26.0662 18.9005 25.4731C19.152 24.2346 20.5594 23.3646 21.7328 23.9915C21.8589 24.0592 22.0884 24.0569 22.21 23.9846C24.087 22.8592 25.9542 21.7185 27.8213 20.5769C27.9718 20.4854 28.1071 20.3662 28.2408 20.2492C29.3822 19.2492 30.5419 18.2862 32.0868 18ZM26.4535 28.2315C27.3935 28.7285 27.9528 29.5177 28.3654 30.4346C28.9871 31.8154 29.3731 33.2692 29.6566 34.7531C29.747 35.2277 29.5555 35.5477 29.1854 35.6085C28.81 35.67 28.5623 35.4277 28.4452 34.9654C28.1793 33.9146 27.914 32.8623 27.6017 31.8254C27.1875 30.4515 26.401 29.4292 25.024 28.8577C24.4214 28.6077 23.8917 28.0954 23.4244 27.6085C22.802 26.9585 22.289 26.2015 21.6955 25.5208C21.4136 25.1977 21.0671 24.88 20.5746 25.13C20.0799 25.3808 20.0556 25.8431 20.105 26.3223C20.1179 26.4477 20.1407 26.5808 20.1947 26.6931C20.6217 27.5908 20.5085 28.4585 20.162 29.3623C19.1877 31.9077 18.8382 34.5331 19.383 37.2338C20.1817 41.1938 22.3339 44.2454 25.5514 46.5662C25.6107 46.6085 25.6814 46.6346 25.7581 46.6738C25.271 46.0162 24.7535 45.4123 24.3393 44.7423C22.7815 42.2223 21.7556 39.4892 21.2608 36.5546C21.1841 36.1008 21.3847 35.7654 21.7571 35.7023C22.1082 35.6431 22.3589 35.8754 22.4737 36.3215C22.8149 37.6423 23.1234 38.9731 23.5308 40.2731C23.7983 41.1254 24.2147 41.93 24.5992 42.8369C24.6676 42.6677 24.7011 42.6115 24.714 42.55C25.0179 41.0877 25.4161 39.6385 25.1958 38.1146C25.1411 37.7354 25.3842 37.4446 25.7254 37.3977C26.0347 37.3546 26.325 37.5792 26.398 37.9346C26.4367 38.1215 26.4633 38.3131 26.4732 38.5038C26.5553 40.1892 26.2088 41.8192 25.7429 43.4138C25.5431 44.0985 25.654 44.5731 26.078 45.1108C27.9627 47.4969 30.3458 49.0177 33.3263 49.5477C33.6948 49.6131 33.935 49.9023 33.9008 50.2385C33.8651 50.5846 33.5839 50.8208 33.2039 50.7808C32.7085 50.7285 32.216 50.6446 31.7236 50.5754C31.7715 50.89 31.8399 51.1762 31.8551 51.4654C31.8976 52.2808 32.3756 52.7654 33.1872 52.7685C34.4639 52.7731 35.7398 52.7746 37.0165 52.7685C38.0075 52.7638 38.4201 52.4031 38.5425 51.4092C38.6618 50.4415 39.085 49.6738 39.9422 49.2154C40.3617 48.9915 40.8276 48.8538 41.279 48.6962C45.0224 47.3846 47.9937 45.0869 49.9969 41.5908C51.5419 38.8946 52.1361 35.9892 51.7463 32.88C51.5662 31.4454 51.0669 30.1085 50.6345 28.7469C50.4042 28.0215 50.2264 27.2785 50.0478 26.5377C49.927 26.0369 49.585 25.7177 49.0592 25.6946C48.7939 25.6831 48.528 25.6815 48.2635 25.6946C47.708 25.7208 47.2224 25.5423 46.7847 25.2062C46.4123 24.92 46.0354 24.6392 45.6645 24.3508C45.3689 24.1208 45.0399 24.0662 44.6987 24.19C43.8019 24.5154 43.061 24.9931 43.0055 26.0954C43.001 26.1823 42.9607 26.2677 42.9402 26.3546C42.7935 26.9585 42.4333 27.3908 41.9318 27.7392C41.4788 28.0538 40.9955 28.3623 40.6383 28.7731C39.8936 29.6292 39.0296 30.1923 37.8912 30.2846C37.6784 30.3015 37.4679 30.3515 37.2589 30.4C36.8448 30.4954 36.556 30.7323 36.4557 31.1692C36.4154 31.3431 36.3683 31.5154 36.3273 31.6892C36.1327 32.5069 35.6585 33.0777 34.8811 33.3854C34.4001 33.5754 33.9259 33.7854 33.4418 33.9669C33.0846 34.1008 32.8772 34.3554 32.7107 34.6938C32.3125 35.5008 32.1621 36.3631 32.0929 37.2469C31.8535 40.3331 32.3589 43.2862 33.6257 46.1069C34.3271 47.6685 35.2071 49.0531 36.8493 49.7638C37.1761 49.9054 37.2673 50.2777 37.1229 50.5808C36.9747 50.8915 36.6365 51.0092 36.2832 50.8531C35.2664 50.4046 34.4031 49.7431 33.7534 48.8323C32.7221 47.3862 32.0473 45.7592 31.5739 44.0531C31.3748 43.3354 31.0655 42.7377 30.5799 42.1677C29.2508 40.6077 28.7272 38.7623 28.9529 36.7108C29.0068 36.2238 29.2827 35.9992 29.6649 36.0577C30.0297 36.1131 30.1984 36.4015 30.184 36.8623C30.1688 37.3723 30.1475 37.8869 30.1999 38.3915C30.2706 39.0685 30.4689 39.7169 30.7668 40.2146C30.8276 38.9815 30.8291 37.6731 30.9705 36.3808C31.1681 34.5777 31.7608 32.9985 33.7572 32.4977C34.644 32.2754 35.1357 31.7585 35.2991 30.8062C35.4442 29.9646 36.0461 29.4331 36.8767 29.2223C37.3395 29.1046 37.8099 29.0154 38.3016 28.9077C38.1009 28.3631 37.9079 27.8392 37.7157 27.3146C37.458 26.6123 37.458 26.6023 36.7262 26.6162C36.3789 26.6231 35.9739 26.5685 35.6965 26.7254C34.4555 27.4292 33.1545 27.6131 31.7813 27.3362C30.8679 27.1523 29.9666 26.9062 29.0532 26.7246C27.8054 26.4762 27.3327 26.7085 26.6807 27.82C26.61 27.9408 26.5462 28.0646 26.4542 28.2323L26.4535 28.2315ZM39.1846 20.4823C38.6238 20.4346 37.9725 20.4446 37.3509 20.3115C36.2817 20.0831 35.2178 19.8054 34.1736 19.4769C32.1583 18.8438 30.6293 19.6646 29.231 21.0838C29.9864 21.1477 30.5411 21.4669 30.8139 22.18C31.0647 22.8377 31.0617 22.8469 31.7859 22.7862C33.2359 22.6638 34.315 23.2192 34.9837 24.55C35.0521 24.6869 35.141 24.8138 35.2003 24.9538C35.334 25.2692 35.565 25.3769 35.8941 25.3615C36.2847 25.3431 36.6776 25.3508 37.0689 25.3592C37.9527 25.3792 38.4467 25.7354 38.7583 26.57C38.9627 27.1177 39.1648 27.6669 39.4019 28.3085C39.6755 28.0038 39.8929 27.7362 40.1368 27.4977C40.3534 27.2862 40.5722 27.0385 40.839 26.9254C41.4811 26.6531 41.7851 26.1869 41.89 25.5077C41.9925 24.8392 42.2258 24.2085 42.8057 23.8008C43.0937 23.5985 43.425 23.46 43.7298 23.28C44.6006 22.7669 45.4662 22.7208 46.3318 23.29C46.3401 23.2954 46.3682 23.2723 46.4488 23.2292C45.6509 22.3815 44.8773 21.5392 44.0808 20.7185C43.5952 20.2177 43.0169 20.0654 42.3535 20.36C42.0891 20.4777 41.8064 20.5523 41.5419 20.6708C40.0509 21.3369 38.7408 22.2915 37.4702 23.3077C37.0781 23.6215 36.711 23.6269 36.4701 23.3262C36.2247 23.02 36.2984 22.6508 36.6981 22.3462C37.5431 21.7015 38.3988 21.0708 39.1854 20.4815L39.1846 20.4823ZM25.344 27.6385C25.5195 27.3531 25.6738 27.0915 25.8387 26.8377C26.5583 25.7323 27.5219 25.1662 28.8602 25.4492C29.7706 25.6415 30.6772 25.8515 31.5891 26.0338C32.5056 26.2177 33.4266 26.3446 34.3476 25.9554C34.1409 25.5815 33.9502 25.2077 33.7336 24.85C33.3704 24.2477 32.8209 23.9954 32.1347 24.0285C31.9455 24.0377 31.757 24.0615 31.5686 24.0677C30.5259 24.1008 29.994 23.7277 29.6946 22.7246C29.6133 22.4531 29.4651 22.3538 29.1999 22.3692C28.696 22.3985 28.1907 22.4485 27.6876 22.4315C27.2438 22.4169 26.8851 22.5777 26.5264 22.8054C25.3622 23.5446 24.1911 24.2723 23.0239 25.0069C23.0087 25.0169 23.0064 25.0485 22.9859 25.1031C23.7823 25.9154 24.2504 27.0615 25.3432 27.6377L25.344 27.6385Z"></path>
<path fill="#007E40" d="M46.136 37.0501C47.4484 36.3701 48.7365 35.747 49.4774 34.3993C49.6925 34.0093 50.0314 33.8893 50.3582 34.0763C50.6698 34.2547 50.7572 34.6001 50.5664 34.9786C50.1219 35.8586 49.4425 36.5332 48.6301 37.0439C47.8717 37.5209 47.0654 37.9201 46.2667 38.3263C46.0342 38.4447 45.9164 38.5586 45.8526 38.837C45.5873 39.9893 45.2735 41.1301 44.971 42.2986C46.1801 41.7078 47.4347 41.1555 48.4515 40.1916C48.8011 39.8601 49.1408 39.8032 49.4128 40.0624C49.6978 40.3347 49.7077 40.7663 49.3186 41.0601C48.5123 41.6686 47.6825 42.2555 46.8131 42.7639C46.0517 43.2093 45.2188 43.5263 44.4269 43.9201C44.262 44.0024 44.1055 44.1509 44.0029 44.307C43.2277 45.4878 42.4671 46.6786 41.6995 47.8647C41.6448 47.9501 41.5741 48.0263 41.505 48.1009C41.2344 48.3924 40.9016 48.4355 40.6288 48.2163C40.359 47.9993 40.3385 47.6155 40.5725 47.2893C41.0992 46.5547 41.6243 45.8178 42.1471 45.0809C42.2125 44.9886 42.2649 44.887 42.3409 44.7586C41.9191 44.4424 41.5027 44.137 41.0931 43.8216C39.1895 42.3578 37.279 40.8978 35.6634 39.0986C35.2044 38.587 34.8579 37.9655 34.5022 37.3678C34.3305 37.0793 34.465 36.7893 34.7385 36.6039C35.0349 36.4039 35.4848 36.5163 35.6003 36.8624C35.8078 37.4832 36.2219 37.9424 36.6559 38.3878C38.5625 40.3455 40.723 41.9909 42.964 43.6693C43.2627 42.9601 43.5606 42.2909 43.8251 41.6093C43.9907 41.1824 44.0925 40.7301 44.2514 40.3001C44.3441 40.0493 44.2681 39.9216 44.0751 39.757C42.6966 38.5755 41.3165 37.3955 39.973 36.1739C39.5558 35.7947 39.2275 35.3047 38.9015 34.8355C38.7244 34.5809 38.602 34.2716 38.5207 33.9686C38.4326 33.6409 38.6043 33.3955 38.9151 33.277C39.2229 33.1601 39.5086 33.2732 39.6249 33.5516C40.2268 34.9963 41.429 35.9016 42.5202 36.9001C43.1829 37.5063 43.9003 38.0509 44.6397 38.6609C44.9513 37.0001 45.0675 35.4009 44.9399 33.7909C44.873 32.9509 44.7294 32.117 44.6131 31.2816C44.5485 30.8193 44.7256 30.5001 45.1033 30.427C45.4551 30.3586 45.7264 30.5863 45.8199 31.0378C46.2143 32.9324 46.2888 34.8455 46.136 36.7709C46.1299 36.8432 46.136 36.9171 46.136 37.0501Z"></path>
</g>
</g>
<defs>
<clipPath id="clip0_3041_520">
<rect fill="white" height="72" width="72"></rect>
</clipPath>
</defs>
</svg>
