<svg xmlns="http://www.w3.org/2000/svg" fill="none" viewBox="0 0 48 48" height="48" width="48">
<g clip-path="url(#clip0_3041_640)">
<mask height="48" width="48" y="0" x="0" maskUnits="userSpaceOnUse" style="mask-type:luminance" id="mask0_3041_640">
<path fill="white" d="M48 0H0V48H48V0Z"></path>
</mask>
<g mask="url(#mask0_3041_640)">
<path fill="#007E40" d="M24 48C37.2548 48 48 37.2548 48 24C48 10.7452 37.2548 0 24 0C10.7452 0 0 10.7452 0 24C0 37.2548 10.7452 48 24 48Z"></path>
<path fill="white" d="M32.4863 18.452C32.2906 18.3528 32.131 18.2588 32.0443 18.0239C31.5756 16.7544 30.7412 15.7921 29.5815 15.1221C29.3944 15.0142 29.2871 14.882 29.2227 14.6714C28.1592 11.1788 24.2071 10.179 21.6508 12.7537C21.5074 12.8981 21.371 12.9703 21.1658 12.9573C19.2996 12.8372 17.4198 14.0893 16.7923 16.0096C16.7322 16.1941 16.6352 16.2967 16.4592 16.3664C15.6454 16.6892 14.969 17.2104 14.381 17.8612C12.89 19.5109 12.5681 22.0873 13.6025 24.1468C14.6257 26.182 16.8627 27.4245 19.0533 27.153C19.4344 27.1061 19.6293 27.1913 19.7855 27.5803C20.8757 30.2993 21.7349 33.0767 22.0165 36.0142C22.0508 36.3675 22.2508 36.585 22.6216 36.6355C23.0491 36.6946 23.4766 36.6859 23.9753 36.6868C24.3041 36.6659 24.705 36.7329 25.1024 36.6442C25.4741 36.5615 25.6672 36.3283 25.7033 35.9542C26.0072 32.7792 26.9874 29.7982 28.2235 26.8877C28.3454 26.6014 28.4579 26.584 28.7257 26.7049C29.6081 27.1043 30.5326 27.2244 31.4837 26.999C33.3464 26.5579 34.7431 25.0291 34.9628 23.1993C35.2049 21.1841 34.2495 19.3482 32.4863 18.452ZM25.529 30.355C25.0629 31.8751 24.6784 33.4143 24.4947 34.9979C24.4612 35.2851 24.3384 35.339 24.0818 35.3373C23.3023 35.3312 23.2835 35.3442 23.1702 34.5916C22.7796 32.0048 21.9916 29.5371 20.9812 27.033C21.5246 27.314 21.9984 27.5455 22.5135 27.6568C22.6989 27.6969 22.7246 27.8361 22.7641 27.9675C22.904 28.4373 23.0457 28.9072 23.1633 29.3831C23.2457 29.7199 23.3839 29.9783 23.759 30.0209C24.1599 30.067 24.3607 29.8278 24.4878 29.4884C24.6801 28.9759 24.8698 28.4617 25.0638 27.9501C25.1136 27.8187 25.1427 27.6786 25.3187 27.6342C25.7874 27.5168 26.22 27.3027 26.7145 27.0504C26.2758 28.185 25.8664 29.2561 25.5299 30.3542L25.529 30.355ZM33.6769 22.8434C33.5585 24.2312 32.5533 25.4146 31.1816 25.6982C30.1257 25.9158 29.1703 25.6443 28.36 24.9056C27.8304 24.4235 27.5746 24.434 27.1136 24.9595C25.5634 26.7284 23.2217 27.0095 21.3298 25.6286C20.9486 25.3502 20.613 25.2832 20.1889 25.5051C19.673 25.7748 19.1099 25.8749 18.6078 25.847C16.4798 25.8401 14.7235 24.3739 14.3827 22.3884C14.0136 20.2331 15.1639 18.2084 17.1983 17.5192C17.655 17.3644 17.8678 17.1146 17.9803 16.6622C18.3777 15.0699 19.9254 14.0414 21.5014 14.3207C21.9263 14.3956 22.1761 14.2033 22.4088 13.8987C22.9521 13.1887 23.6654 12.7946 24.5496 12.678C26.1608 12.4665 27.7652 13.6481 28.0107 15.2796C28.0759 15.7155 28.2682 15.9739 28.663 16.1549C29.7781 16.6657 30.5215 17.5384 30.8863 18.7156C31.0176 19.1411 31.2279 19.39 31.6494 19.5535C33.0117 20.0826 33.8005 21.399 33.6769 22.8434Z"></path>
<path fill="white" d="M22.2138 18.6365C21.7992 18.6365 21.3838 18.673 20.9941 18.8131C20.2928 19.0655 19.9211 19.5893 19.8636 20.3419C19.8395 20.6534 19.7133 20.8962 19.4043 21.0075C19.1631 21.0945 18.9588 21.0206 18.77 20.8657C18.5837 20.7126 18.5579 20.5046 18.5596 20.2801C18.5734 18.8888 19.6387 17.6655 21.0687 17.4062C21.4911 17.3296 21.9151 17.2957 22.3443 17.3131C22.8705 17.3348 23.1504 17.5758 23.1375 18.01C23.1255 18.439 22.8714 18.6391 22.3426 18.6365C22.2997 18.6365 22.2559 18.6365 22.2138 18.6365Z"></path>
</g>
</g>
<defs>
<clipPath id="clip0_3041_640">
<rect fill="white" height="48" width="48"></rect>
</clipPath>
</defs>
</svg>
