<svg xmlns="http://www.w3.org/2000/svg" xmlns:xlink="http://www.w3.org/1999/xlink" width="100" zoomAndPan="magnify" viewBox="0 0 75 74.999997" height="100" preserveAspectRatio="xMidYMid meet" version="1.0"><path fill="#ffffff" d="M 20.832031 0 C 9.328125 0 0 9.328125 0 20.832031 L 0 54.167969 C 0 65.671875 9.328125 75 20.832031 75 L 54.167969 75 C 65.671875 75 75 65.671875 75 54.167969 L 75 20.832031 C 75 9.328125 65.671875 0 54.167969 0 Z M 62.5 8.332031 C 64.800781 8.332031 66.667969 10.199219 66.667969 12.5 C 66.667969 14.800781 64.800781 16.667969 62.5 16.667969 C 60.199219 16.667969 58.332031 14.800781 58.332031 12.5 C 58.332031 10.199219 60.199219 8.332031 62.5 8.332031 Z M 37.5 16.667969 C 49.003906 16.667969 58.332031 25.996094 58.332031 37.5 C 58.332031 49.003906 49.003906 58.332031 37.5 58.332031 C 25.996094 58.332031 16.667969 49.003906 16.667969 37.5 C 16.667969 25.996094 25.996094 16.667969 37.5 16.667969 Z M 37.5 25 C 36.679688 25 35.867188 25.078125 35.0625 25.238281 C 34.257812 25.398438 33.476562 25.636719 32.714844 25.953125 C 31.957031 26.265625 31.238281 26.652344 30.554688 27.105469 C 29.871094 27.5625 29.242188 28.082031 28.660156 28.660156 C 28.082031 29.242188 27.5625 29.871094 27.105469 30.554688 C 26.652344 31.238281 26.265625 31.957031 25.953125 32.714844 C 25.636719 33.476562 25.398438 34.257812 25.238281 35.0625 C 25.078125 35.867188 25 36.679688 25 37.5 C 25 38.320312 25.078125 39.132812 25.238281 39.9375 C 25.398438 40.742188 25.636719 41.523438 25.953125 42.285156 C 26.265625 43.042969 26.652344 43.761719 27.105469 44.445312 C 27.5625 45.128906 28.082031 45.757812 28.660156 46.339844 C 29.242188 46.917969 29.871094 47.4375 30.554688 47.894531 C 31.238281 48.347656 31.957031 48.734375 32.714844 49.046875 C 33.476562 49.363281 34.257812 49.601562 35.0625 49.761719 C 35.867188 49.921875 36.679688 50 37.5 50 C 38.320312 50 39.132812 49.921875 39.9375 49.761719 C 40.742188 49.601562 41.523438 49.363281 42.285156 49.046875 C 43.042969 48.734375 43.761719 48.347656 44.445312 47.894531 C 45.128906 47.4375 45.757812 46.917969 46.339844 46.339844 C 46.917969 45.757812 47.4375 45.128906 47.894531 44.445312 C 48.347656 43.761719 48.734375 43.042969 49.046875 42.285156 C 49.363281 41.523438 49.601562 40.742188 49.761719 39.9375 C 49.921875 39.132812 50 38.320312 50 37.5 C 50 36.679688 49.921875 35.867188 49.761719 35.0625 C 49.601562 34.257812 49.363281 33.476562 49.046875 32.714844 C 48.734375 31.957031 48.347656 31.238281 47.894531 30.554688 C 47.4375 29.871094 46.917969 29.242188 46.339844 28.660156 C 45.757812 28.082031 45.128906 27.5625 44.445312 27.105469 C 43.761719 26.652344 43.042969 26.265625 42.285156 25.953125 C 41.523438 25.636719 40.742188 25.398438 39.9375 25.238281 C 39.132812 25.078125 38.320312 25 37.5 25 Z M 37.5 25 " fill-opacity="1" fill-rule="nonzero"/></svg>