<svg xmlns="http://www.w3.org/2000/svg" fill="none" viewBox="0 0 100 100" height="100" width="100">
<g clip-path="url(#clip0_3041_560)">
<mask height="79" width="100" y="11" x="0" maskUnits="userSpaceOnUse" style="mask-type:luminance" id="mask0_3041_560">
<path fill="white" d="M0 11.7333H99.4667V89.7125H0V11.7333Z"></path>
</mask>
<g mask="url(#mask0_3041_560)">
<path fill="#007E40" d="M92.2582 39.7864C93.231 34.4656 90.3332 30.2562 86.602 28.2509C84.912 27.3597 83.0343 26.8834 81.1238 26.8613C79.7342 22.8696 76.8167 19.376 73.1436 17.3301C70.0278 15.6029 66.5737 15.0864 63.3582 15.8613C54.8833 10.3416 37.3166 10.5592 30.8062 15.5832C29.2969 16.7341 28.3844 18.1248 28.0668 19.653C24.5729 19.2562 20.8814 19.4749 17.7449 20.2488C13.0406 21.4208 9.66678 23.8426 7.99905 27.2384C7.42411 28.3893 7.08651 29.6008 6.94705 30.8122C2.91744 31.348 0.357178 34.4458 0.177978 39.152C-0.00015524 43.5197 1.90518 48.2656 5.24038 51.0842C5.08091 55.9488 6.62891 60.0592 9.70598 62.9978C12.5049 65.6584 16.3153 67.0688 20.583 67.0688C20.9404 67.0688 21.3174 67.048 21.6748 67.0282C21.8737 67.9813 22.1916 68.7562 22.5289 69.372C25.03 74.1365 31.282 76.5594 36.7799 76.5594C37.3164 76.5594 37.8318 76.5397 38.3486 76.4802C45.434 79.7168 50.9132 83.9656 54.6444 89.1282C54.77 89.3 54.9342 89.4398 55.1239 89.5363C55.3136 89.6327 55.5233 89.6832 55.7361 89.6834C55.835 89.6834 55.9142 89.6834 56.0142 89.6637L64.6881 87.8376C65.3433 87.6981 65.7996 87.1218 65.7601 86.4469C65.6612 84.1637 64.9465 80.2125 63.934 77.2741C65.8393 77.6709 67.8038 77.8698 69.7694 77.8698C71.3966 77.8698 73.0049 77.7304 74.5727 77.473C82.2945 76.1429 87.2569 71.8336 87.8716 66.096C88.4873 65.996 89.0633 65.8376 89.5988 65.6189C95.4145 63.1773 96.1092 60.1584 95.8716 58.3128C97.7569 57.4389 98.9673 55.8504 99.3049 53.7253C99.9996 49.3973 96.7644 43.1034 92.258 39.7866L92.2582 39.7864ZM62.9812 85.4541L56.3321 86.8437C52.9174 82.377 48.2926 78.5842 42.5364 75.5272C45.474 74.3552 47.5385 72.2304 48.3927 69.4314C49.4041 69.372 50.4166 69.173 51.4094 68.8949C53.1366 72.449 56.55 74.9314 60.6596 76.3802C61.6116 78.2074 62.6638 82.5354 62.9814 85.4541H62.9812ZM74.1166 74.8312C72.727 75.0698 71.298 75.1896 69.8292 75.1896C63.2593 75.1896 56.4708 72.7666 53.95 67.9416C55.022 67.4458 56.0145 66.8498 56.9073 66.2144C59.1302 67.1082 61.6313 67.5842 64.1324 67.5842C68.698 67.5842 73.2241 66.0154 75.9625 62.6405C78.6428 64.6061 82.0564 65.9362 85.1134 66.1946C84.2396 72.5685 76.578 74.3946 74.1166 74.8312ZM96.626 53.328C96.4468 54.5 95.851 55.3333 94.8396 55.8301C93.7478 54.3208 91.9009 53.0498 89.7177 52.1968C89.6582 48.1656 87.7729 43.301 83.5249 41.2165C82.85 40.8789 82.0364 41.157 81.7188 41.8322C81.3812 42.5072 81.6593 43.3208 82.3345 43.6384C85.2919 45.0885 86.7209 48.404 86.9793 51.4018C85.6689 51.1434 84.3188 51.0445 82.97 51.1434C82.2159 51.184 81.6596 51.8392 81.6991 52.5936C81.7385 53.348 82.3937 53.904 83.1481 53.8645C84.8356 53.7656 86.5023 54.0032 87.9721 54.4602C87.9919 54.4602 87.9919 54.4602 88.0116 54.48C90.4929 55.2538 92.4177 56.6434 93.0335 58.0341V58.0538C93.0929 58.1925 93.1324 58.332 93.1721 58.4706C93.5492 60.0592 91.8617 61.7664 88.5668 63.157C88.0116 63.3946 87.3564 63.5144 86.6417 63.5538H86.5822H86.502C82.6521 63.6725 77.1332 61.0914 74.9102 57.7757C73.4217 55.5714 73.6404 53.5664 75.5655 51.6205C76.102 51.084 76.0812 50.2309 75.5655 49.6944C75.03 49.1578 74.1758 49.1778 73.6404 49.6944C70.8217 52.5338 70.4841 56.0288 72.6676 59.2653C73.0458 59.8232 73.4709 60.3477 73.9385 60.833C70.822 64.7642 64.3708 65.6581 59.2697 64.1288C59.3292 64.0496 59.4084 63.9901 59.4676 63.9112C59.9644 63.3549 59.9052 62.481 59.3489 62.005C58.7926 61.529 57.9198 61.5685 57.4436 62.1237C56.1926 63.5538 54.0884 65.0226 51.7665 65.9165H51.7468H51.7271C50.3572 66.4333 48.9084 66.7312 47.5188 66.7104C45.4542 66.6709 43.827 65.9165 42.6364 64.4469C42.1593 63.872 41.3062 63.772 40.7302 64.249C40.1542 64.7261 40.0553 65.5792 40.5324 66.1552C41.8417 67.7634 43.5689 68.8157 45.6137 69.2125C44.3033 72.3698 40.9886 73.3626 38.9638 73.6605C33.3076 74.5136 27.0148 72.0125 24.9502 68.0813C23.3033 64.9437 24.4148 61.1512 28.1857 57.101C32.3348 52.6333 52.0846 40.601 62.6441 40.3229C63.3983 40.3032 63.9943 39.6874 63.9743 38.9333C63.9543 38.1792 63.3388 37.5834 62.5846 37.6032C59.0908 37.7021 54.9431 38.8938 51.0918 40.4021C49.9804 37.0666 50.5356 33.096 53.8513 31.4082C54.5262 31.0706 54.7836 30.2562 54.446 29.581C54.1084 28.9058 53.295 28.6477 52.6198 28.9853C47.8564 31.4082 47.023 36.928 48.5708 41.4354C45.9708 42.5469 43.6281 43.7386 41.8615 44.672C38.1105 46.6573 34.4582 48.8813 31.5209 50.9261C31.5804 48.8408 32.4334 46.677 33.327 44.4333C34.6958 40.9781 36.2052 37.1261 34.8948 33.076C37.475 32.877 40.0156 32.5394 42.1001 31.4082C45.1969 29.7405 46.6262 26.7218 46.4865 22.1946C46.4668 21.4405 45.851 20.8645 45.0772 20.8842C44.323 20.904 43.7481 21.5394 43.7678 22.2946C44.0054 29.4426 39.818 30.0581 32.9502 30.4946C28.266 30.7925 22.966 31.1104 21.4574 35.9946C21.2388 36.7093 21.6356 37.4634 22.3502 37.7018C22.4897 37.7413 22.6284 37.7613 22.747 37.7613C23.323 37.7613 23.8585 37.3842 24.0377 36.8082C24.871 34.128 27.6305 33.5917 32.0564 33.2936C33.4854 36.6696 32.175 39.9656 30.7865 43.4602C29.5948 46.4778 28.3646 49.5957 28.9198 52.852C27.7689 53.7458 26.8366 54.5792 26.1812 55.2738C22.926 58.7685 21.7342 61.8258 21.5364 64.3082C17.5865 64.5269 14.0729 63.3749 11.5916 61.0125C9.42811 58.9677 8.19771 56.148 7.97905 52.7928C8.97185 53.2293 10.0633 53.5074 11.2145 53.6064H11.3332C12.0278 53.6064 12.6238 53.0698 12.6833 52.3554C12.7428 51.6013 12.1876 50.9461 11.4334 50.8866C6.15318 50.469 2.69904 44.4138 2.89798 39.2512C2.95744 37.6626 3.51371 34.2074 7.00625 33.5522C7.16571 34.645 7.52305 35.7365 8.03851 36.749C9.34891 39.2709 11.6113 41.0376 14.3313 41.7325C15.2241 45.545 17.7252 48.8605 22.1718 49.5565C22.251 49.5762 22.3105 49.5762 22.3894 49.5762C22.7126 49.5762 23.025 49.4598 23.2692 49.2482C23.5135 49.0366 23.6734 48.7441 23.7196 48.4242C23.8382 47.6898 23.3228 46.9952 22.5884 46.8752C18.2612 46.2002 16.4945 41.8325 16.6726 37.8013C16.7121 37.0472 16.1174 36.4117 15.383 36.392C14.6289 36.3525 13.9934 36.9482 13.9737 37.6826C13.954 38.04 13.954 38.3973 13.9737 38.7346C12.4852 38.0992 11.2342 36.968 10.4798 35.4784C9.92464 34.4064 9.64651 33.2544 9.62678 32.0837V32.064V32.0245C9.62678 30.813 9.90491 29.5818 10.4798 28.4298C13.4974 22.2757 22.8662 21.7589 28.1652 22.3944C28.3838 23.3277 28.7809 24.3005 29.3766 25.2933C29.7734 25.9288 30.6068 26.1266 31.2422 25.7298C31.8777 25.333 32.0756 24.4986 31.6788 23.8632C31.063 22.8704 30.7454 21.9778 30.686 21.1434V21.104C30.6068 19.8133 31.2028 18.7018 32.4921 17.7082C35.4505 15.4448 41.663 14.1946 48.3118 14.5322C55.1796 14.8896 61.0953 16.8354 63.7348 19.6146C66.2358 22.2552 65.7598 25.6709 62.266 29.7208C62.0318 29.992 61.9148 30.3451 61.9408 30.7025C61.9668 31.06 62.1336 31.3924 62.4047 31.6269C62.6631 31.8456 62.9806 31.9445 63.2785 31.9445C63.6556 31.9445 64.0326 31.7861 64.3108 31.4685C69.8681 24.9757 68.0222 20.4882 66.0774 18.1853C68.4191 18.1258 70.4046 18.88 71.814 19.6749C74.7516 21.3029 77.1129 24.0426 78.3441 27.1802C75.9617 27.796 73.6399 29.2645 71.814 31.9053C70.0868 34.3877 69.3326 37.5845 68.5982 40.6813C67.7441 44.2552 66.9305 47.6512 64.8065 48.9021C63.794 49.4968 62.4452 49.6562 60.6982 49.3189V48.8221C60.6785 48.068 60.0628 47.4722 59.3087 47.492C58.5545 47.5117 57.9588 48.1274 57.9785 48.8826C57.9785 49.2794 57.939 49.6368 57.8796 49.9941V50.0138C57.463 51.8805 55.9743 53.1314 54.6638 53.8858C51.9836 55.4546 48.491 55.812 47.2596 55.0776C46.6252 54.6994 45.7908 54.8984 45.394 55.5536C45.0169 56.189 45.2158 57.0234 45.87 57.4202C46.7241 57.936 47.8951 58.1744 49.1857 58.1744C51.3492 58.1744 53.89 57.4994 56.0337 56.2482C57.9785 55.117 59.3484 53.6472 60.0828 51.9794C60.8964 52.1389 61.6505 52.2181 62.3652 52.2181C63.8142 52.2181 65.0849 51.9005 66.1767 51.2453C69.2934 49.3984 70.2652 45.288 71.2182 41.3173C71.8932 38.4778 72.5881 35.5194 74.0369 33.4549C75.7233 31.0122 77.9276 29.861 80.1108 29.6029H80.1305C80.2097 29.6029 80.3086 29.5832 80.3878 29.5832C82.0896 29.4523 83.7928 29.8177 85.2911 30.6352C88.3079 32.2632 91.0868 36.0362 88.9631 41.357C88.686 42.0517 89.0225 42.8466 89.7172 43.1248C90.3527 43.3832 91.0473 43.1248 91.3849 42.5685C94.6996 45.408 97.1215 50.2133 96.6255 53.3298L96.626 53.328Z"></path>
</g>
</g>
<defs>
<clipPath id="clip0_3041_560">
<rect fill="white" height="100" width="100"></rect>
</clipPath>
</defs>
</svg>
