<svg xmlns="http://www.w3.org/2000/svg" fill="none" viewBox="0 0 100 100" height="100" width="100">
<g clip-path="url(#clip0_3041_536)">
<path fill="#007E40" d="M72.5406 32.2584H51.5865C41.8094 32.2584 33.8574 24.3011 33.8574 14.5157V1.61253C33.8583 1.18533 34.0284 0.775867 34.3304 0.473687C34.6323 0.171507 35.0417 0.00119745 35.4689 0C35.8961 0.00119745 36.3054 0.171507 36.6074 0.473687C36.9094 0.775867 37.0794 1.18533 37.0804 1.61253V14.5157C37.0804 22.5179 43.5908 29.0325 51.5865 29.0325H72.5406C72.9678 29.0337 73.3772 29.204 73.6792 29.5062C73.9811 29.8084 74.1512 30.2179 74.1521 30.6451C74.1515 31.0725 73.9815 31.4822 73.6795 31.7846C73.3775 32.087 72.968 32.2572 72.5406 32.2584Z"></path>
<mask height="30" width="61" y="16" x="27" maskUnits="userSpaceOnUse" style="mask-type:luminance" id="mask0_3041_536">
<path fill="white" d="M27.2002 16H87.0751V45.3333H27.2002V16Z"></path>
</mask>
<g mask="url(#mask0_3041_536)">
<path fill="#007E40" d="M72.5409 45.1613H29.0222C28.1337 45.1613 27.4097 44.4363 27.4097 43.5477C27.4106 43.1203 27.5808 42.7107 27.883 42.4085C28.1852 42.1063 28.5948 41.9361 29.0222 41.9352H72.5409C78.7617 41.9352 83.8233 36.8696 83.8233 30.6445C83.8233 24.4195 78.7619 19.3549 72.5409 19.3549H56.4222C55.9948 19.3537 55.5853 19.1833 55.2833 18.8809C54.9813 18.5784 54.8114 18.1687 54.8107 17.7413C54.8116 17.3141 54.9817 16.9047 55.2837 16.6025C55.5856 16.3003 55.995 16.13 56.4222 16.1288H72.5409C80.5366 16.1288 87.047 22.6435 87.047 30.6445C87.047 38.6456 80.5366 45.1613 72.5409 45.1613Z"></path>
</g>
<mask height="31" width="63" y="28" x="12" maskUnits="userSpaceOnUse" style="mask-type:luminance" id="mask1_3041_536">
<path fill="white" d="M12.875 28.8H74.4001V58.1334H12.875V28.8Z"></path>
</mask>
<g mask="url(#mask1_3041_536)">
<path fill="#007E40" d="M72.5407 58.0646H27.4095C19.4137 58.0646 12.9033 51.5499 12.9033 43.5481C12.9033 35.5462 19.4137 29.0323 27.4095 29.0323H49.9751C50.4023 29.0335 50.8116 29.2039 51.1136 29.506C51.4156 29.8082 51.5856 30.2177 51.5865 30.6449C51.5859 31.0723 51.416 31.482 51.114 31.7844C50.812 32.0868 50.4024 32.2573 49.9751 32.2585H27.4095C21.1887 32.2585 16.1271 37.3241 16.1271 43.5481C16.1271 49.7721 21.1884 54.8388 27.4095 54.8388H72.5407C72.968 54.8399 73.3776 55.0104 73.6796 55.3128C73.9816 55.6152 74.1515 56.025 74.1521 56.4523C74.1512 56.8796 73.9812 57.289 73.6792 57.5912C73.3772 57.8934 72.9679 58.0634 72.5407 58.0646Z"></path>
</g>
<path fill="#007E40" d="M56.4221 19.3552H54.8106C50.3658 19.3552 46.7511 15.7387 46.7511 11.2907V1.61253C46.7521 1.18514 46.9222 0.775522 47.2245 0.473312C47.5267 0.171101 47.9363 0.000915862 48.3637 0C48.7909 0.00119745 49.2002 0.171507 49.5022 0.473687C49.8042 0.775867 49.9742 1.18533 49.9751 1.61253V11.2907C49.9751 13.9616 52.1407 16.1293 54.8106 16.1293H56.4221C56.8495 16.1303 57.2591 16.3004 57.5613 16.6026C57.8635 16.9049 58.0337 17.3145 58.0346 17.7419C58.0346 18.6304 57.3106 19.3552 56.4221 19.3552ZM64.4815 100C64.0543 99.9988 63.645 99.8285 63.343 99.5263C63.041 99.2241 62.871 98.8147 62.8701 98.3875V85.4843C62.8701 77.4821 56.3597 70.9677 48.3639 70.9677H27.4098C26.9826 70.9665 26.5733 70.7962 26.2713 70.494C25.9693 70.1919 25.7993 69.7824 25.7983 69.3552C25.799 68.9278 25.9689 68.5181 26.2709 68.2157C26.5729 67.9133 26.9824 67.7428 27.4098 67.7416H48.3639C58.141 67.7416 66.093 75.6989 66.093 85.4843V98.3875C66.0921 98.8147 65.9221 99.2241 65.6201 99.5263C65.3181 99.8285 64.9087 99.9988 64.4815 100Z"></path>
<mask height="30" width="34" y="54" x="12" maskUnits="userSpaceOnUse" style="mask-type:luminance" id="mask2_3041_536">
<path fill="white" d="M12.875 54.6666H45.3334V84H12.875V54.6666Z"></path>
</mask>
<g mask="url(#mask2_3041_536)">
<path fill="#007E40" d="M43.5281 83.8709H27.4095C19.4137 83.8709 12.9033 77.3562 12.9033 69.3552C12.9033 61.3541 19.4137 54.8386 27.4095 54.8386C28.2969 54.8386 29.022 55.5637 29.022 56.4522C29.022 57.3408 28.2969 58.0648 27.4095 58.0648C21.1887 58.0648 16.1271 63.1304 16.1271 69.3554C16.1271 75.5805 21.1884 80.645 27.4095 80.645H43.5281C43.9555 80.6462 44.365 80.8167 44.667 81.1191C44.969 81.4215 45.139 81.8312 45.1396 82.2586C45.1387 82.6858 44.9686 83.0953 44.6667 83.3975C44.3647 83.6996 43.9553 83.87 43.5281 83.8712"></path>
</g>
<mask height="31" width="40" y="41" x="48" maskUnits="userSpaceOnUse" style="mask-type:luminance" id="mask3_3041_536">
<path fill="white" d="M48.2666 41.8667H87.0749V71.2H48.2666V41.8667Z"></path>
</mask>
<g mask="url(#mask3_3041_536)">
<path fill="#007E40" d="M72.5403 70.9677H49.9747C49.5475 70.9665 49.1382 70.7962 48.8362 70.494C48.5342 70.1918 48.3642 69.7824 48.3633 69.3552C48.3639 68.9278 48.5338 68.5181 48.8358 68.2156C49.1378 67.9132 49.5474 67.7428 49.9747 67.7416H72.5403C78.7612 67.7416 83.8227 62.676 83.8227 56.452C83.8227 50.228 78.7614 45.1613 72.5403 45.1613H56.4217C55.9943 45.1601 55.5848 44.9897 55.2828 44.6872C54.9808 44.3848 54.8108 43.9751 54.8102 43.5477C54.8111 43.1205 54.9812 42.711 55.2831 42.4089C55.5851 42.1067 55.9945 41.9364 56.4217 41.9352H72.5403C80.5361 41.9352 87.0465 48.4498 87.0465 56.452C87.0465 64.4541 80.5361 70.9677 72.5403 70.9677Z"></path>
</g>
<path fill="#007E40" d="M51.5865 100C51.1593 99.9988 50.7499 99.8285 50.4479 99.5263C50.1459 99.2241 49.9759 98.8147 49.975 98.3875V88.7093C49.975 86.0384 47.8094 83.8707 45.1395 83.8707H43.5281C43.1007 83.8698 42.691 83.6996 42.3888 83.3974C42.0866 83.0951 41.9164 82.6855 41.9155 82.2581C41.9155 81.3696 42.6395 80.6445 43.5281 80.6445H45.1395C49.5843 80.6445 53.199 84.2613 53.199 88.7091V98.3872C53.1981 98.8146 53.0279 99.2242 52.7257 99.5264C52.4235 99.8286 52.0139 99.9988 51.5865 99.9997"></path>
</g>
<defs>
<clipPath id="clip0_3041_536">
<rect fill="white" height="100" width="100"></rect>
</clipPath>
</defs>
</svg>
