<svg xmlns="http://www.w3.org/2000/svg" xmlns:xlink="http://www.w3.org/1999/xlink" width="100" zoomAndPan="magnify" viewBox="0 0 75 74.999997" height="100" preserveAspectRatio="xMidYMid meet" version="1.0"><path fill="#ffffff" d="M 56.191406 0 L 18.75 0 C 8.453125 0 0 8.453125 0 18.808594 L 0 56.25 C 0 66.546875 8.453125 75 18.75 75 L 56.191406 75 C 66.546875 75 75 66.546875 75 56.191406 L 75 18.808594 C 75 8.453125 66.546875 0 56.191406 0 Z M 47.558594 37.5 L 40.476562 37.5 L 40.476562 60.714844 L 31.546875 60.714844 L 31.546875 37.5 L 26.785156 37.5 L 26.785156 27.976562 L 30.953125 27.976562 L 30.953125 23.929688 C 30.953125 20.117188 32.855469 14.105469 40.894531 14.105469 L 48.214844 14.105469 L 48.214844 22.023438 L 43.035156 22.023438 C 42.203125 22.023438 41.070312 22.558594 41.070312 24.40625 L 41.070312 27.976562 L 48.394531 27.976562 Z M 47.558594 37.5 " fill-opacity="1" fill-rule="nonzero"/></svg>