<svg xmlns="http://www.w3.org/2000/svg" xmlns:xlink="http://www.w3.org/1999/xlink" width="100" zoomAndPan="magnify" viewBox="0 0 75 74.999997" height="100" preserveAspectRatio="xMidYMid meet" version="1.0"><path fill="#ffffff" d="M 68.183594 0 L 6.816406 0 C 3.050781 0 0 3.050781 0 6.816406 L 0 68.183594 C 0 71.949219 3.050781 75 6.816406 75 L 68.183594 75 C 71.949219 75 75 71.949219 75 68.183594 L 75 6.816406 C 75 3.050781 71.945312 0 68.183594 0 Z M 63.710938 32.296875 C 63.269531 32.339844 62.824219 32.367188 62.371094 32.367188 C 57.277344 32.367188 52.796875 29.746094 50.1875 25.78125 C 50.1875 36.175781 50.1875 48.007812 50.1875 48.203125 C 50.1875 57.359375 42.765625 64.777344 33.617188 64.777344 C 24.46875 64.773438 17.046875 57.351562 17.046875 48.199219 C 17.046875 39.046875 24.46875 31.628906 33.617188 31.628906 C 33.964844 31.628906 34.300781 31.660156 34.640625 31.679688 L 34.640625 39.847656 C 34.300781 39.808594 33.96875 39.746094 33.617188 39.746094 C 28.945312 39.746094 25.160156 43.535156 25.160156 48.203125 C 25.160156 52.875 28.941406 56.664062 33.617188 56.664062 C 38.289062 56.664062 42.414062 52.980469 42.414062 48.308594 C 42.414062 48.121094 42.496094 10.230469 42.496094 10.230469 L 50.300781 10.230469 C 51.035156 17.210938 56.667969 22.71875 63.710938 23.222656 Z M 63.710938 32.296875 " fill-opacity="1" fill-rule="nonzero"/></svg>