<svg xmlns="http://www.w3.org/2000/svg" fill="none" viewBox="0 0 272 102" height="102" width="272">
<path fill="#FFCC2E" d="M39.1089 71.9751C37.7568 81.7499 32.1417 85.4915 22.2692 85.4915C15.9101 85.4915 10.6209 84.6878 3.75138 83.2433C2.86078 83.0586 1.99191 83.6614 1.86701 84.5629L0.0152365 97.9923C-0.0988026 98.8069 0.43881 99.5672 1.24251 99.7464C6.9499 101.001 12.9723 101.707 19.8798 101.707C42.6441 101.707 54.0806 90.8948 56.3669 71.9751L59.7989 44.6383L63.2798 26.0988C63.6979 23.9538 62.5684 23.2859 60.7546 23.8126L50.9907 26.8808C48.3298 27.7605 46.9885 27.2501 45.2236 26.2672C41.5309 24.209 36.7141 22.808 31.6258 22.808C16.7627 22.808 5.01124 31.2252 2.31231 50.4598C-0.0770807 67.2995 7.09652 76.7593 20.2979 76.7593C27.4552 76.7593 33.5047 73.4848 38.5279 69.4663C39.4456 68.7332 39.299 70.5361 39.1089 71.9751ZM42.0251 51.5784C41.3137 56.2975 39.4945 59.4417 36.9259 60.6527C34.3573 61.8637 31.5932 62.6185 28.5087 62.6185C19.7766 62.6185 16.6595 57.7311 17.6967 50.248C18.6308 43.6989 23.415 39.2296 34.0152 39.1264C36.2851 39.0504 38.7288 39.197 41.0747 39.5663C43.4207 39.9356 43.5565 40.4786 42.8831 45.5344L42.0196 51.5784H42.0251Z"></path>
<path fill="#FFCC2E" d="M98.1158 43.5251C98.0506 43.5251 97.9854 43.5252 97.9203 43.5306C89.8615 43.8564 83.7197 45.9363 82.8345 53.9516L80.0107 79.4529C79.8098 81.2884 78.2567 82.6786 76.4049 82.6786H65.0118C62.8071 82.6786 61.1128 80.7236 61.4223 78.5406L67.0754 38.7029L68.0257 26.5279C68.1343 25.1268 69.3019 24.0462 70.7084 24.0462H81.5312C82.5793 24.0462 83.4427 24.8608 83.5025 25.9088L84.0129 34.8473C84.0835 36.0149 84.6917 35.8357 84.9633 35.4284C89.6389 28.3688 94.8521 23.0035 100.44 23.0035H100.456C101.781 23.0035 102.797 24.1765 102.618 25.4907L100.407 41.4562C100.25 42.6128 99.2779 43.4817 98.1103 43.5197L98.1158 43.5251Z"></path>
<path fill="#FFCC2E" d="M180.653 55.3039L178.03 79.377C177.824 81.2559 176.499 82.6787 173.914 82.6787H163.742C160.338 82.6787 159.756 80.6857 160.077 78.4538L165.714 38.7085L166.664 26.5606C166.773 25.1433 167.956 24.0517 169.374 24.0517H179.246C180.571 24.0517 181.668 25.0944 181.733 26.4194L182.152 35.1407C182.184 36.7427 182.776 36.3897 183.075 36.0367C189.825 27.9997 197.33 23.0145 205.215 23.0145C214.571 23.0145 221.224 29.2541 218.834 48.6896L214.979 79.4367C214.745 81.2885 213.415 82.6787 210.536 82.6787H201.299C197.319 82.6787 196.591 80.6531 196.939 78.4049L201.267 50.5577C202.516 43.0746 199.811 40.9947 195.445 40.9947C192.974 40.9947 190.552 41.793 188.174 43.2592C183.933 45.8658 181.196 50.3513 180.658 55.3039H180.653Z"></path>
<path fill="#FFCC2E" d="M121.728 55.4124C120.864 63.3517 122.151 66.6479 129.314 66.6479C137.253 66.6479 139.295 62.2275 140.246 54.9833L143.764 26.555C143.938 25.0617 145.209 23.9321 146.713 23.9321H159.464C160.686 23.9321 161.614 25.0291 161.413 26.2346L158.133 53.0067C155.462 76.8191 144.845 83.9764 128.711 83.9764C106.713 83.9764 100.935 73.1916 104.296 53.6095L107.603 26.5442C107.782 25.0562 109.048 23.9376 110.552 23.9376H123.949C125.171 23.9376 126.099 25.0399 125.898 26.2455L121.733 55.4232"></path>
<path fill="#FFCC2E" d="M248.354 47.1309C262.49 48.5863 271.434 53.1587 269.56 66.3601C267.795 78.5242 255.631 83.7212 243.054 83.7212C235.278 83.7212 229.152 82.9718 223.342 81.5327C221.604 81.1037 220.442 80.0339 220.735 77.6391L222.343 66.5284C222.538 64.9699 223.51 64.4323 224.433 64.7146C230.771 66.6425 236.022 68.1304 245.552 68.1304C251.374 68.1304 253.866 66.675 254.181 64.3888C254.491 61.8962 252.101 60.6473 248.257 59.9196C232.248 57.7365 224.14 54.5163 226.008 40.7936C227.773 28.3199 240.355 22.808 252.101 22.808C258.987 22.808 264.445 23.6606 269.071 25.1376C270.69 25.6535 271.781 26.2889 271.477 28.9335L269.859 41.0054C269.718 42.0589 268.599 42.6671 267.638 42.2109C263.207 40.1256 257.429 38.3988 248.675 38.3988C243.581 38.3988 241.295 39.7509 240.877 42.3467C240.459 45.1542 243.266 46.2946 248.36 47.1309H248.354Z"></path>
<path fill="#FFCC2E" d="M122.455 18.5395C127.869 18.5395 132.257 14.3893 132.257 9.26975C132.257 4.1502 127.869 0 122.455 0C117.042 0 112.653 4.1502 112.653 9.26975C112.653 14.3893 117.042 18.5395 122.455 18.5395Z"></path>
<path fill="#FFCC2E" d="M149.493 18.5395C154.907 18.5395 159.295 14.3893 159.295 9.26975C159.295 4.1502 154.907 0 149.493 0C144.08 0 139.691 4.1502 139.691 9.26975C139.691 14.3893 144.08 18.5395 149.493 18.5395Z"></path>
</svg>
